<?xml version="1.0" encoding="UTF-8" standalone="no"?>
<svg
   xmlns:dc="http://purl.org/dc/elements/1.1/"
   xmlns:cc="http://creativecommons.org/ns#"
   xmlns:rdf="http://www.w3.org/1999/02/22-rdf-syntax-ns#"
   xmlns:svg="http://www.w3.org/2000/svg"
   xmlns="http://www.w3.org/2000/svg"
   id="svg926"
   version="1.1"
   viewBox="0 0 22.2 21.2"
   height="79.9"
   width="84">
  <defs
     id="defs920">
    <clipPath
       id="clip-path">
      <path
         id="path4"
         d="m 48,66.1 a 1.53,1.53 0 0 1 -1.5,1.6 h -9 A 1.54,1.54 0 0 1 36,66.1 v 0 -9.1 a 1.56,1.56 0 0 1 1.5,-1.6 h 9 A 1.54,1.54 0 0 1 48,57 v 0 z m -0.1,-18 a 1.47,1.47 0 0 1 -1.6,1.1 H 37.6 C 36.7,49.2 36,48.7 36,48.1 l -0.8,-22 a 1.42,1.42 0 0 1 0.5,-1 2,2 0 0 1 1.1,-0.5 h 10.3 a 2,2 0 0 1 1.2,0.5 1.2,1.2 0 0 1 0.4,0.9 z M 47.2,3.22 a 5.89,5.89 0 0 0 -10.5,0 L 0.74,70.9 A 6.22,6.22 0 0 0 0.84,77 6,6 0 0 0 6,80 h 72 a 6,6 0 0 0 5.2,-3 6.22,6.22 0 0 0 0,-6.1 z"
         class="cls-1" />
    </clipPath>
    <clipPath
       id="clip-path-2">
      <polygon
         id="polygon7"
         points="-23.7,56.9 42,-8.88 108,56.9 42,126 "
         class="cls-1" />
    </clipPath>
  </defs>
  <metadata
     id="metadata923">
    <rdf:RDF>
      <cc:Work
         rdf:about="">
        <dc:format>image/svg+xml</dc:format>
        <dc:type
           rdf:resource="http://purl.org/dc/dcmitype/StillImage" />
        <dc:title></dc:title>
      </cc:Work>
    </rdf:RDF>
  </metadata>
  <g
     transform="translate(-198,61.3)"
     id="layer1">
    <g
       transform="matrix(0.265,0,0,0.265,198,-61.3)"
       id="g43"
       clip-path="url(#clip-path)"
       class="cls-2">
      <g
         data-name="Mask Group 15"
         id="Mask_Group_15">
        <g
           data-name="Mask Group 14"
           id="Mask_Group_14">
          <g
             id="g39"
             clip-path="url(#clip-path-2)"
             class="cls-3">
            <g
               data-name="Repeat Grid 6"
               id="Repeat_Grid_6">
              <path
                 d="M 107,56.5 -1270,1470 M 105,53.7 -1270,1470 M 102,50.9 -1270,1470 M 99,48 -1280,1460 M 96.1,45.2 -1280,1460 M 93.3,42.4 -1280,1460 M 90.5,39.5 -1280,1450 M 87.7,36.7 -1290,1450 M 84.8,33.9 -1290,1450 M 82,31.1 -1290,1450 M 79.2,28.2 -1300,1440 M 76.3,25.4 -1300,1440 M 73.5,22.6 -1300,1440 M 70.7,19.8 -1300,1430 M 67.9,16.9 -1310,1430 M 65,14.1 -1310,1430 M 62.2,11.3 -1310,1430 M 59.4,8.44 -1320,1420 M 56.5,5.61 -1320,1420 M 53.7,2.79 -1320,1420 M 50.9,-0.04 -1320,1410 M 48.1,-2.87 -1330,1410 M 45.2,-5.7 -1330,1410 M 42.4,-8.53 -1330,1410"
                 style="fill:none;stroke:#ff1400"
                 id="Line_50-24" />
            </g>
          </g>
        </g>
      </g>
    </g>
  </g>
</svg>
