<svg xmlns="http://www.w3.org/2000/svg" width="50" height="50" viewBox="0 0 50 50">
    <defs>
        <style>
            .cls-1{fill:#fecf13}.cls-2{fill:#264c80}
        </style>
    </defs>
    <g id="Component_65_1" data-name="Component 65 – 1">
        <rect id="Rectangle_361" width="21.667" height="21.667" class="cls-1" data-name="Rectangle 361" rx="2" transform="translate(14.166 6.667)"/>
        <path id="computer" d="M11.667 50v-1.667h1.666v-2.5a.834.834 0 0 1 .834-.833h2.583l.666-6.667H2.5a2.5 2.5 0 0 1-2.5-2.5V2.5A2.5 2.5 0 0 1 2.5 0h45A2.5 2.5 0 0 1 50 2.5v33.333a2.5 2.5 0 0 1-2.5 2.5H32.587L33.254 45h2.579a.833.833 0 0 1 .833.833v2.5h1.666V50zM15 48.333h20v-1.667H15zM18.421 45h13.162l-.667-6.667H19.087zM1.666 2.5v33.333a.833.833 0 0 0 .833.833h45a.834.834 0 0 0 .834-.833V2.5a.834.834 0 0 0-.834-.833H2.5a.834.834 0 0 0-.834.833zM24.167 35v-1.666h1.667V35zm-20-3.334a.833.833 0 0 1-.833-.833V5A1.665 1.665 0 0 1 5 3.334h40A1.666 1.666 0 0 1 46.666 5v25.833a.833.833 0 0 1-.833.833zM5 30h40V5H5zm11-1.667a1.834 1.834 0 0 1-1.833-1.833v-18A1.834 1.834 0 0 1 16 6.667h18A1.833 1.833 0 0 1 35.833 8.5v18A1.833 1.833 0 0 1 34 28.333zm9.833-1.666H34a.167.167 0 0 0 .166-.166v-8.167h-8.332zm-10-.166a.166.166 0 0 0 .166.166h8.167v-8.333h-8.332zm10-9.834h8.333V8.5A.167.167 0 0 0 34 8.333h-8.166zm-10-8.167v8.167h8.333V8.333H16a.167.167 0 0 0-.166.167zm13.334 17.334v-1.668h1.667v1.667zM20 23.678l-1.179 1.178-1.178-1.178 1.178-1.178-1.178-1.178 1.178-1.178L20 21.321l1.177-1.178 1.179 1.178-1.179 1.179 1.179 1.178-1.179 1.178zm7.5-.345v-1.666h5v1.666zm1.667-2.5v-1.666h1.667v1.667zM19.166 15v-1.667H17.5v-1.666h1.667V10h1.667v1.667H22.5v1.666h-1.667V15zm8.334-1.667v-1.666h5v1.666z" class="cls-2"/>
    </g>
</svg>
