<svg xmlns="http://www.w3.org/2000/svg" width="50" height="50" viewBox="0 0 50 50">
    <defs>
        <style>
            .cls-1{fill:#fecf13}.cls-2{fill:#264c80}
        </style>
    </defs>
    <g id="Component_66_1" data-name="Component 66 – 1">
        <rect id="Rectangle_362" width="21.667" height="15" class="cls-1" data-name="Rectangle 362" rx="1" transform="translate(14.167 10)"/>
        <path id="computer_mail" d="M11.666 50v-1.667h1.667v-2.5a.833.833 0 0 1 .834-.833h2.583l.666-6.667H2.5a2.5 2.5 0 0 1-2.5-2.5V2.5A2.5 2.5 0 0 1 2.5 0h45A2.5 2.5 0 0 1 50 2.5v33.333a2.5 2.5 0 0 1-2.5 2.5H32.587L33.254 45h2.579a.833.833 0 0 1 .833.833v2.5h1.667V50zM15 48.333h20v-1.667H15zM18.421 45h13.162l-.666-6.667H19.088zM1.667 2.5v33.333a.833.833 0 0 0 .833.833h45a.834.834 0 0 0 .833-.833V2.5a.834.834 0 0 0-.833-.834h-45a.834.834 0 0 0-.833.834zM24.166 35v-1.667h1.667V35zm-20-3.333a.833.833 0 0 1-.833-.833V5A1.667 1.667 0 0 1 5 3.333h40A1.666 1.666 0 0 1 46.666 5v25.833a.833.833 0 0 1-.833.833zM5 30h40V5H5zm10-5a.834.834 0 0 1-.833-.834V10.833a.333.333 0 0 1 .01-.052.757.757 0 0 1 .025-.19c0-.016.016-.028.022-.044a.988.988 0 0 1 .048-.1.812.812 0 0 1 .106-.157.725.725 0 0 1 .076-.078.812.812 0 0 1 .167-.11.932.932 0 0 1 .083-.045A.835.835 0 0 1 15 10h20a.839.839 0 0 1 .3.06c.028.014.056.029.083.045a.826.826 0 0 1 .166.11.831.831 0 0 1 .182.235.994.994 0 0 1 .049.1c.006.016.016.028.022.044a.813.813 0 0 1 .025.189c0 .018.01.034.01.053v13.33A.834.834 0 0 1 35 25zm1.871-1.667h16.258l-5.767-6.407-1.9 1.267a.834.834 0 0 1-.925 0l-1.9-1.267zm11.893-7.338l5.4 6v-9.6zm-12.931 6l5.4-6-5.4-3.6zM25 16.5l7.25-4.834h-14.5z" class="cls-2"/>
    </g>
</svg>
