<svg xmlns="http://www.w3.org/2000/svg" width="57.5" height="50" viewBox="0 0 57.5 50">
    <defs>
        <style>
            .cls-1{fill:#fecf13}.cls-2{fill:#264c80}
        </style>
    </defs>
    <g id="Component_67_1" data-name="Component 67 – 1">
        <path id="Path_3385" d="M.951 1h9.167a.833.833 0 0 1 .833.833v12.388h4.339l-9.641 8.933-9.944-8.933H.118V1.833A.833.833 0 0 1 .951 1z" class="cls-1" data-name="Path 3385" transform="translate(23.216 -.167)"/>
        <path id="box" d="M57.4 29.179l-4.991-9.348a.43.43 0 0 0-.038-.058.278.278 0 0 0-.034-.048.308.308 0 0 0-.062-.073s-.009-.015-.019-.019a.009.009 0 0 0-.009-.009c-.005-.005-.01-.01-.015-.01a.1.1 0 0 0-.038-.039l-.01-.009a.036.036 0 0 0-.019-.01.088.088 0 0 0-.024-.019.43.43 0 0 0-.12-.068.035.035 0 0 0-.024-.009.256.256 0 0 0-.086-.029.024.024 0 0 0-.019-.009L38.6 15.806l.591-.528a.851.851 0 0 0 .226-.934.832.832 0 0 0-.783-.547h-3.673V1.238a.845.845 0 0 0-.841-.847H23.379a.844.844 0 0 0-.841.847V13.8h-3.675a.831.831 0 0 0-.783.547.851.851 0 0 0 .226.934l.591.528-13.283 3.607c-.009 0-.015 0-.019.009a.256.256 0 0 0-.086.029c-.01 0-.019 0-.024.009a.43.43 0 0 0-.12.068c-.01.005-.015.015-.024.019a.106.106 0 0 0-.029.019.3.3 0 0 0-.038.039s-.009 0-.015.01l-.009.009a.039.039 0 0 0-.019.019.308.308 0 0 0-.062.073.172.172 0 0 0-.034.048.429.429 0 0 0-.038.058L.1 29.179a.841.841 0 0 0-.029.735.818.818 0 0 0 .553.479l4.371 1.19v11.734a.741.741 0 0 0 .01.112.246.246 0 0 0 .014.082.786.786 0 0 0 .149.319.665.665 0 0 0 .091.1.384.384 0 0 0 .062.058.133.133 0 0 0 .034.019.711.711 0 0 0 .168.092.2.2 0 0 0 .072.024.038.038 0 0 0 .019.01l22.867 6.212a.856.856 0 0 0 .4.034.671.671 0 0 0 .091-.019l.048-.015 22.867-6.212a.04.04 0 0 0 .019-.01.373.373 0 0 0 .077-.024.605.605 0 0 0 .163-.092.123.123 0 0 0 .033-.019.368.368 0 0 0 .063-.058.666.666 0 0 0 .091-.1.786.786 0 0 0 .149-.319.246.246 0 0 0 .014-.082.807.807 0 0 0 .01-.112V31.584l4.371-1.19a.818.818 0 0 0 .553-.479.841.841 0 0 0-.029-.735zM24.22 2.084h9.06v12.56a.848.848 0 0 0 .246.6.835.835 0 0 0 .595.248h2.306l-1.263 1.132-5.572 4.983-.841.755-.841-.755-5.572-4.983-1.264-1.132h2.306a.835.835 0 0 0 .595-.248.848.848 0 0 0 .246-.6zM20.4 17.151l7.513 6.726.283.251a.836.836 0 0 0 1.115 0l.283-.251 7.506-6.726 11.337 3.082-18.846 5.124-.841.232-.841-.232-18.85-5.124zM2.084 29.039l2.911-5.448 1.263-2.366.418.112L27.506 27l-4.175 7.814-16.655-4.527-1.681-.455zm4.592 13.63v-10.63l16.862 4.587a.85.85 0 0 0 .221.029.837.837 0 0 0 .74-.445l3.411-6.387v18.618L9.059 43.317zm44.148 0l-2.383.648-18.85 5.124V29.823L33 36.21a.837.837 0 0 0 .74.445.85.85 0 0 0 .221-.029l16.862-4.587zm1.681-12.836l-1.681.455-16.655 4.528L29.994 27l20.83-5.661.418-.112 1.263 2.366 2.911 5.448zM31.267 39.954a.845.845 0 0 0-.62.818v4.761a.846.846 0 0 0 .327.672.835.835 0 0 0 .729.146l4.732-1.287a.84.84 0 0 0 .62-.818v-4.761A.838.838 0 0 0 36 38.668l-2.33.634zm4.108 3.646l-3.046.832V41.42l3.046-.832zm8.5-1.185a.824.824 0 0 1-.019-.344.86.86 0 0 1 .615-.7l1.638-.445 3.091-.836a.847.847 0 0 1 .442 1.635l-.3.082-3.233.876-1.2.324a.87.87 0 0 1-.221.029.841.841 0 0 1-.81-.624zm0 0" class="cls-2" transform="translate(0 -.391)"/>
    </g>
</svg>
