<svg xmlns="http://www.w3.org/2000/svg" width="57.12" height="42" viewBox="0 0 57.12 42">
    <defs>
        <style>
            .cls-1{fill:#fecf13}.cls-2{fill:#264c80}
        </style>
    </defs>
    <g id="Component_68_1" data-name="Component 68 – 1">
        <path id="Path_3386" d="M-.48 0h30.24l-2.52 26.04H-3z" class="cls-1" data-name="Path 3386" transform="translate(13.079 .84)"/>
        <path id="delivery-truck" d="M38.812 36.434h-13.42a6.364 6.364 0 0 1-12.628 0H9.038a.735.735 0 0 1-.082 0 .645.645 0 0 1-.074-.011h-.01A.636.636 0 0 1 8.8 36.4h-.006l-.064-.023-.014-.005a.49.49 0 0 1-.044-.021.824.824 0 0 1-.194-.134l-.029-.026v-.005a.83.83 0 0 1-.2-.33.034.034 0 0 0 0-.009l-.008-.033c0-.016-.009-.031-.012-.048s0-.012 0-.019-.008-.042-.01-.064a.191.191 0 0 1 0-.02v-.064-.046V35.5l.865-8.975.559-5.8H6.805a.841.841 0 0 1 0-1.683h2.986l1.028-10.66H.837a.842.842 0 0 1 0-1.684H10.98L11.551.76V.74a.49.49 0 0 1 .01-.064V.668A.839.839 0 0 1 12.384 0H42.976l.041.006.044.007.034.008.048.012.021.008.058.021h.008a.84.84 0 0 1 .5.771v.081l-1.084 12.514h3.6A10.922 10.922 0 0 1 57.12 24.369c0 .508-.054 1.338-.138 2.324v.01c-.293 3.419-.948 8.707-.984 8.993 0 .011 0 .023-.005.034s0 .026-.007.039-.007.028-.011.042l-.01.036-.019.053c-.006.018 0 .014-.008.021a.956.956 0 0 1-.035.072l-.038.063c-.013.021-.008.011-.012.017s-.022.032-.035.047l-.017.02-.034.037-.023.022-.033.031-.027.022-.033.025-.031.02-.035.021-.033.018-.036.017-.035.015-.041.015-.032.011-.049.013-.027.006a.563.563 0 0 1-.065.01H51.44a6.364 6.364 0 0 1-12.628 0zm1.618-.842a4.7 4.7 0 1 0 4.7-4.725 4.716 4.716 0 0 0-4.7 4.724zm-26.048 0a4.7 4.7 0 1 0 4.7-4.725 4.716 4.716 0 0 0-4.701 4.724zm37.06-.842h2.986c.176-1.455.57-4.779.813-7.367a6.864 6.864 0 0 1-4.054-2.787c-1.224-1.415-2.38-2.751-4.944-2.751h-4.325l-.418 4.841v.006c0 .006 0 .028-.006.042s0 .027-.006.041-.006.026-.009.04l-.011.039c0 .012-.008.024-.012.036a.38.38 0 0 1-.015.041c0 .011-.009.022-.014.033a.407.407 0 0 1-.02.04.2.2 0 0 1-.016.03l-.023.039a.319.319 0 0 1-.02.028l-.026.036-.022.026-.029.033-.026.025-.031.029-.029.024-.032.024-.032.022-.034.02-.034.019-.037.018-.034.015-.042.016-.033.011-.049.013-.028.007-.065.01h-.016a.732.732 0 0 1-.082 0h-30l-.7 7.295h2.8a6.364 6.364 0 0 1 12.628 0h13.418a6.364 6.364 0 0 1 12.628 0zm-40.618-8.978H39.9l.42-4.853 1.663-19.235H13.144L12.661 6.7h8.649a.842.842 0 0 1 0 1.684H12.5l-1.027 10.66h5.374a.841.841 0 0 1 0 1.683H11.31zm36.339-5.56c2.712.3 4.127 1.939 5.285 3.278.927 1.071 1.692 1.95 2.936 2.205.04-.551.063-1.009.063-1.325a9.255 9.255 0 0 0-7.852-9.157zm-5.1-.051h3.424l.437-5.049H42.5zm0 15.431a3.068 3.068 0 1 1 3.068 3.086 3.081 3.081 0 0 1-3.073-3.087zm1.674 0a1.394 1.394 0 1 0 1.394-1.4 1.4 1.4 0 0 0-1.399 1.399zm-27.722 0a3.068 3.068 0 1 1 3.068 3.086 3.081 3.081 0 0 1-3.073-3.087zm1.673 0a1.394 1.394 0 1 0 1.395-1.4 1.4 1.4 0 0 0-1.399 1.399zM3.831 15.112a.842.842 0 0 1 0-1.684h4.09a.842.842 0 0 1 0 1.684z" class="cls-2"/>
    </g>
</svg>
