<?xml version="1.0" encoding="UTF-8" standalone="no"?>
<svg
   xmlns:dc="http://purl.org/dc/elements/1.1/"
   xmlns:cc="http://creativecommons.org/ns#"
   xmlns:rdf="http://www.w3.org/1999/02/22-rdf-syntax-ns#"
   xmlns:svg="http://www.w3.org/2000/svg"
   xmlns="http://www.w3.org/2000/svg"
   id="svg7"
   version="1.1"
   viewBox="0 0 50 50"
   height="50"
   width="50">
  <metadata
     id="metadata11">
    <rdf:RDF>
      <cc:Work
         rdf:about="">
        <dc:format>image/svg+xml</dc:format>
        <dc:type
           rdf:resource="http://purl.org/dc/dcmitype/StillImage" />
        <dc:title></dc:title>
      </cc:Work>
    </rdf:RDF>
  </metadata>
  <defs
     id="defs4">
    <style
       id="style2">
            .cls-1{fill:#264c80}
        </style>
  </defs>
  <path
  fill="#fecf13"
     d="M 24.5,7.43 29,12.3 c 0.6,0.9 -1.3,4.7 -4,2.3 L 20.7,10.1 20,10.6 c -1,0.5 -2,0.8 -3.1,0.7 l -1.1,-0.1 v 16.4 h 1 32.5 V 7.43 Z"/>
  <path
     class="cls-1"
     d="M37.69 50H25.949a4.17 4.17 0 0 1-2.194-.624L8.583 40.3a3.3 3.3 0 0 1-1.647-2.883 3.344 3.344 0 0 1 .44-1.658 3.278 3.278 0 0 1 1.432-1.333 3.14 3.14 0 0 1 .843-.277 3.318 3.318 0 0 1 2.266.374l8.465 4.58A3.356 3.356 0 0 1 22.648 37l9.624-2.584a7.56 7.56 0 0 1 1.937-.25H37.4a4.176 4.176 0 0 1 2.141.592l2.122 1.271v-2.7H50V50h-8.333v-1.257l-2.445.966a4.159 4.159 0 0 1-1.527.291zm5.643-1.667h5V35h-5zM10.275 35.758a1.789 1.789 0 0 0-.319.03 1.582 1.582 0 0 0-.417.135 1.643 1.643 0 0 0-.715.661 1.694 1.694 0 0 0-.223.834 1.657 1.657 0 0 0 .828 1.447l15.193 9.088a2.5 2.5 0 0 0 1.327.381h11.744a2.5 2.5 0 0 0 .917-.175l3.057-1.208v-8.978l-2.979-1.784a2.494 2.494 0 0 0-1.284-.356h-3.195a5.839 5.839 0 0 0-1.505.2l-9.621 2.574a1.684 1.684 0 0 0-1.226 1.47c-.007.07 0 .272 0 .272a1.531 1.531 0 0 0 .048.309 1.666 1.666 0 0 0 1.611 1.227c.1-.008.592-.109.972-.2l8.63-2.307.43 1.61-8.658 2.32a8.165 8.165 0 0 1-1.373.245 3.342 3.342 0 0 1-3.217-2.467c-.014-.051-.014-.1-.024-.152l-9.179-4.96a1.639 1.639 0 0 0-.813-.217zM15 28.334v-10.64a9.188 9.188 0 0 1-4.746-1.527l-.5-.334h-1.42v2.5H0V0h8.334v1.606l.846.03a2.466 2.466 0 0 0 1.209-.262L12.257.44A4.2 4.2 0 0 1 14.12 0H24.6a7.45 7.45 0 0 1 5.3 2.2l4.47 4.47H50v21.664zm1.666-1.667h31.667V8.333H26.8l3 3.377c1.494 2.119-2.129 6.661-5.537 3.6l-3.843-3.923a6.053 6.053 0 0 1-3.75.959zm-15-10h5v-15h-5zm6.667-2.5h1.917l.927.613A7.513 7.513 0 0 0 15 16.027V12a6.069 6.069 0 0 1-1.7-.956l-.488-.4 1.05-1.295.483.392a4.417 4.417 0 0 0 5.617-.083l.583-.5 4.917 4.917a1.671 1.671 0 0 0 2.359-2.368l-5.884-5.885 1.178-1.178 2.023 2.022h6.876l-3.292-3.291A5.8 5.8 0 0 0 24.6 1.667H14.12a2.506 2.506 0 0 0-1.12.264l-1.866.934a4.184 4.184 0 0 1-2.015.435l-.786-.028zM30.579 22.5a.192.192 0 0 1-.146-.06.21.21 0 0 1-.057-.153v-1.279h-1.423a.193.193 0 0 1-.146-.06.212.212 0 0 1-.057-.153v-.853a.212.212 0 0 1 .057-.153.193.193 0 0 1 .146-.06h1.422v-.786h-1.422a.191.191 0 0 1-.146-.06.211.211 0 0 1-.057-.153v-.99a.216.216 0 0 1 .057-.15.188.188 0 0 1 .146-.063h1.422v-4.189a.212.212 0 0 1 .057-.153.193.193 0 0 1 .146-.06H34a2.788 2.788 0 0 1 2.072.813 2.857 2.857 0 0 1 .8 2.1 2.855 2.855 0 0 1-.8 2.1 2.788 2.788 0 0 1-2.072.806h-2.159v.786h3.206a.193.193 0 0 1 .146.06.212.212 0 0 1 .057.152v.858a.214.214 0 0 1-.057.153.2.2 0 0 1-.146.06h-3.206v1.279a.206.206 0 0 1-.06.153.2.2 0 0 1-.143.06zm1.263-4.974h2.031a1.492 1.492 0 1 0 0-2.983h-2.032z"
     id="pay" />
</svg>
