<svg xmlns="http://www.w3.org/2000/svg" width="70" height="35.485" viewBox="0 0 70 35.485">
  <g id="Component_70_1" data-name="Component 70 – 1" transform="translate(0 0)">
    <rect id="Rectangle_3965" data-name="Rectangle 3965" width="47.833" height="32.667" transform="translate(21 1.166)" fill="#fecf13"/>
    <g id="mail-send">
      <path id="Path_4691" data-name="Path 4691" d="M107.328,120.716c.026-.005.052-.012.078-.019s.044-.01.066-.017.05-.017.075-.026.044-.015.066-.024.046-.021.068-.032.045-.02.066-.032.042-.025.063-.037.044-.025.065-.039.043-.032.065-.048.037-.026.055-.041.064-.056.094-.085l.017-.015.016-.018c.029-.03.057-.061.084-.093s.029-.039.044-.059.031-.04.045-.061.028-.046.042-.069.024-.038.035-.058.023-.047.034-.071.02-.042.03-.064.017-.047.026-.071.017-.046.024-.069.013-.048.019-.072.013-.047.017-.071.009-.057.013-.086.007-.04.009-.061a1.514,1.514,0,0,0,.008-.151V86.778a1.518,1.518,0,0,0-1.518-1.518H59.213l-.04,0-.086,0-.068.007-.077.012-.072.015-.072.019-.07.022-.071.026-.065.027-.071.034-.059.032-.069.042-.055.037c-.021.015-.043.031-.064.048l-.056.047-.054.049c-.02.019-.039.039-.058.06s-.02.019-.029.029l-.015.019c-.019.022-.037.045-.055.068s-.026.034-.038.051-.03.046-.045.069-.024.038-.035.058-.024.046-.035.069-.021.042-.031.064-.019.047-.027.07-.018.046-.025.069-.014.047-.02.071-.013.048-.019.073-.008.046-.013.069-.009.053-.012.079,0,.044-.005.066,0,.057,0,.085c0,.008,0,.016,0,.025v21.028a1.518,1.518,0,1,0,3.036,0V90.149l13.5,11.95a1.535,1.535,0,0,0-.2.167l-13.3,13.3v-9.976a1.518,1.518,0,1,0-3.036,0v1.855H49.851a1.518,1.518,0,0,0,0,3.036h7.843v8.75a1.518,1.518,0,0,0,1.518,1.518h47.819c.05,0,.1,0,.15-.007.023,0,.046-.007.069-.01S107.3,120.721,107.328,120.716Zm-1.814-5.154-13.3-13.3-.026-.024,10-8.48a1.518,1.518,0,1,0-1.964-2.315l-17.079,14.49L63.217,88.3h42.3Zm-29.34-11.148a1.513,1.513,0,0,0,.265-.357l5.678,5.027a1.518,1.518,0,0,0,1.989.021l5.786-4.909a1.526,1.526,0,0,0,.18.219l13.3,13.3H62.878Z" transform="translate(-38.55 -85.26)" fill="#264c80"/>
      <path id="Path_4692" data-name="Path 4692" d="M1.518,158.712H27.157a1.518,1.518,0,0,0,0-3.036H1.518a1.518,1.518,0,0,0,0,3.036Z" transform="translate(0 -141.423)" fill="#264c80"/>
      <path id="Path_4693" data-name="Path 4693" d="M14.643,117.381H26.155a1.518,1.518,0,0,0,0-3.036H14.643a1.518,1.518,0,0,0,0,3.036Z" transform="translate(-10.468 -108.458)" fill="#264c80"/>
      <path id="Path_4694" data-name="Path 4694" d="M12.651,226.51H1.518a1.518,1.518,0,0,0,0,3.036H12.651a1.518,1.518,0,0,0,0-3.036Z" transform="translate(0 -197.92)" fill="#264c80"/>
    </g>
  </g>
</svg>
