<svg xmlns="http://www.w3.org/2000/svg" width="50" height="49.999" viewBox="0 0 50 49.999">
  <g id="Component_80_1" data-name="Component 80 – 1" transform="translate(0 0)">
    <path id="Path_3389" data-name="Path 3389" d="M42.833,7.9,29.5,2.07a.833.833,0,0,0-.667,0L15.5,7.9a.833.833,0,0,0-.5.763V25.333a.833.833,0,0,0,.455.742l13.333,6.783a.833.833,0,0,0,.378.091.842.842,0,0,0,.374-.088l13.333-6.7a.833.833,0,0,0,.459-.745V8.667A.833.833,0,0,0,42.833,7.9Z" transform="translate(-4.167 -2)" fill="#fecf13"/>
    <path id="product" d="M37.5,50a.833.833,0,0,1-.833-.833v-5a.833.833,0,0,1,.833-.833h.948a5.822,5.822,0,0,1-.948-3.181v-2.1a4.163,4.163,0,0,1,.226-1.351L40.3,29.211a2.5,2.5,0,0,1,1.7-1.75l-1.567-5.869a2.473,2.473,0,0,1,.991-2.7,2.328,2.328,0,0,1,.75-.356,2.357,2.357,0,0,1,.667-.093,2.471,2.471,0,0,1,2.4,1.809l4.447,13.662a4.209,4.209,0,0,1,.113,2.151l-1.285,4.993a5.828,5.828,0,0,0-.184,1.455v.822h.833a.834.834,0,0,1,.834.833v5a.834.834,0,0,1-.834.833Zm.833-1.667h10V45h-10ZM41.9,29.7,39.3,37.244a2.492,2.492,0,0,0-.136.812v2.1a4.149,4.149,0,0,0,.7,2.312l.579.869h6.22v-.822A7.536,7.536,0,0,1,46.9,40.64l1.275-4.949a2.5,2.5,0,0,0-.074-1.264L43.644,20.716a.822.822,0,0,0-1.017-.578.723.723,0,0,0-.256.122.819.819,0,0,0-.333.9l1.72,6.425a2.476,2.476,0,0,1,1.455,2.267,2.272,2.272,0,0,1-.083.647l-1.508,5.635a.834.834,0,0,1-1.61-.431l1.514-5.654a.694.694,0,0,0,.025-.2A.81.81,0,0,0,43,29.074a1.022,1.022,0,0,0-.111-.036.844.844,0,0,0-.99.657ZM.833,50A.833.833,0,0,1,0,49.166v-5a.834.834,0,0,1,.833-.833h.833v-.822a5.813,5.813,0,0,0-.184-1.451L.2,36.067a4.2,4.2,0,0,1,.113-2.151L4.757,20.25a2.473,2.473,0,0,1,2.406-1.812,2.46,2.46,0,0,1,1.417.449,2.471,2.471,0,0,1,.992,2.7L8,27.458a2.5,2.5,0,0,1,1.7,1.75L12.274,36.7a4.16,4.16,0,0,1,.226,1.354v2.1a5.813,5.813,0,0,1-.949,3.181H12.5a.834.834,0,0,1,.833.833v5A.833.833,0,0,1,12.5,50Zm.833-1.667h10V45h-10ZM6.744,20.215a.823.823,0,0,0-.388.5L1.9,34.428a2.5,2.5,0,0,0-.074,1.265L3.1,40.641a7.581,7.581,0,0,1,.237,1.87v.822h6.22l.579-.869a4.157,4.157,0,0,0,.7-2.312v-2.1a2.474,2.474,0,0,0-.136-.812L8.1,29.7a.845.845,0,0,0-.991-.657L7,29.074a.811.811,0,0,0-.553.775.7.7,0,0,0,.024.2L7.985,35.7a.834.834,0,0,1-1.61.431L4.867,30.5a2.316,2.316,0,0,1-.084-.647,2.478,2.478,0,0,1,1.458-2.267l1.721-6.424a.819.819,0,0,0-.334-.9.718.718,0,0,0-.255-.121.814.814,0,0,0-.223-.031A.823.823,0,0,0,6.744,20.215ZM24.621,30.859,11.288,24.076a.835.835,0,0,1-.455-.742V6.666a.833.833,0,0,1,.5-.763L24.667.07a.831.831,0,0,1,.667,0L38.666,5.9a.832.832,0,0,1,.5.763v16.75a.834.834,0,0,1-.459.745l-13.334,6.7a.834.834,0,0,1-.752,0Zm1.211-17.814v15.72L37.5,22.9V7.94ZM12.5,22.822l11.666,5.935V13.041l-3.333-1.458v4.25a.833.833,0,0,1-1.206.745l-3.333-1.666a.834.834,0,0,1-.461-.746V9.4L12.5,7.94Zm5-9.17,1.667.833V10.857L17.5,10.128Zm5.45-8.375,3.576,1.559a.833.833,0,0,1,0,1.526L22.074,10.31,25,11.59,36.254,6.666,25,1.742,13.749,6.666l2.675,1.172,5.859-2.561a.833.833,0,0,1,.667,0ZM18.5,8.748,20,9.4l4.1-1.8L22.613,6.95Zm8.257,16.744a.833.833,0,0,1,.37-1.12l3.339-1.678a.834.834,0,1,1,.75,1.489l-3.339,1.679a.834.834,0,0,1-1.12-.37Zm-.067-3.516a.834.834,0,0,1,.435-.938l3.291-1.654a.834.834,0,1,1,.75,1.489l-3.292,1.654a.825.825,0,0,1-.373.089A.834.834,0,0,1,26.688,21.976Z" transform="translate(0 0)" fill="#264c80"/>
  </g>
</svg>
