<svg xmlns="http://www.w3.org/2000/svg" width="24" height="31" viewBox="0 0 24 31"><defs><style>.a{fill:#9c936b;}</style></defs><path class="a" d="M-206.25-188.8c-.019.08-.038.16-.057.24-.025.1-.047.2-.076.3a2.569,2.569,0,0,1-.1.265,2.368,2.368,0,0,1-.13.262c-.084.143-.171.285-.263.423a3.288,3.288,0,0,1-.222.3c-.179.211-.354.427-.547.624-.164.167-.352.309-.529.463a.194.194,0,0,0-.04.041.666.666,0,0,0-.035.072.284.284,0,0,0,.082.03c.1,0,.209,0,.331,0a6.016,6.016,0,0,1-2.546,1.228c.013-.018.02-.029.028-.037.237-.272.486-.535.707-.82.191-.247.352-.518.522-.782.065-.1.117-.208.177-.312.006-.011.031-.024.037-.021a.076.076,0,0,1,.03.043c.021.1.037.194.06.289s.076.045.108.019a3.87,3.87,0,0,0,.372-.319c.214-.222.426-.447.621-.686a3.772,3.772,0,0,0,.306-.484,3.173,3.173,0,0,0,.209-.4c.057-.14.077-.3.138-.435a1.3,1.3,0,0,0,.053-.506.859.859,0,0,0-.171-.521c-.037-.055-.086-.051-.11.01a.413.413,0,0,0-.04.124,1.277,1.277,0,0,1-.292.659,5.922,5.922,0,0,1-.624.741c-.222.223-.479.41-.72.613a.3.3,0,0,0-.041.055.277.277,0,0,0,.064.041c.094.028.19.052.29.079,0,.006-.011.03-.026.039-.17.1-.34.212-.514.31a3.621,3.621,0,0,1-.423.211c-.138.055-.285.088-.428.13l-.2.057-.317.092a.258.258,0,0,1-.028,0l-.419.075-.264.048-.1.014a8.575,8.575,0,0,0,1.748-1.861c.027.117.048.211.071.3a.094.094,0,0,0,.159.056,3.58,3.58,0,0,0,.884-.936,3.692,3.692,0,0,0,.253-.477,3,3,0,0,0,.162-.388,1.182,1.182,0,0,0,.025-.254.356.356,0,0,1,0-.047c.027-.117-.022-.2-.136-.2a4.032,4.032,0,0,0-1.063.052c-.207-.035-.272.157-.393.256-.191.157-.368.332-.553.5-.142.127-.286.252-.432.374-.174.145-.351.286-.526.429-.22.179-.443.357-.661.539q-.365.3-.724.617c-.178.155-.351.317-.53.472-.2.173-.4.34-.6.514-.233.2-.461.416-.695.621-.182.159-.371.31-.554.468-.125.108-.246.222-.37.331-.2.178-.411.351-.614.53s-.374.338-.564.5c-.248.217-.5.43-.749.647-.133.116-.266.233-.391.358a.126.126,0,0,0,.011.12c.187.187.381.367.573.549l.715.675.3.282q.476.451.952.9c.264.252.525.507.791.757.235.221.475.435.711.654q.227.21.45.424.4.378.79.758l.79.758c.071.069.119.069.19,0,.094-.094.191-.186.279-.284a.22.22,0,0,1,.274,0c.1.1.2.195.306.292a.139.139,0,0,0,.214.008c.158-.129.316-.26.478-.384.179-.136.359-.271.546-.4.163-.11.335-.2.5-.307a.3.3,0,0,0,.085-.063c.07-.091.114-.03.164.021.154.158.31.315.465.473.005.006,0,.018.006.025-.185.134-.368.266-.551.4s-.394.282-.583.432c-.219.173-.43.355-.643.536-.15.127-.3.256-.44.393a.144.144,0,0,0,0,.139,1.78,1.78,0,0,0,.262.264.19.19,0,0,0,.157.023,2.562,2.562,0,0,1,.33-.146,1.254,1.254,0,0,1,.68-.045c.115.041.239.054.357.085a.794.794,0,0,1,.162.064,1.827,1.827,0,0,1,.676.577,1.919,1.919,0,0,1,.25.53,2.389,2.389,0,0,1,.046.582,1.136,1.136,0,0,1-.1.414,1.364,1.364,0,0,1-.3.514,2.8,2.8,0,0,1-.383.328,1.516,1.516,0,0,1-.233.123,2.476,2.476,0,0,1-.363.12,1.249,1.249,0,0,1-.493.042,1.832,1.832,0,0,1-.407-.1,1.46,1.46,0,0,1-.318-.128,1.713,1.713,0,0,1-.329-.253,2.386,2.386,0,0,1-.316-.384,2.157,2.157,0,0,1-.148-.351,1.181,1.181,0,0,1-.086-.551,3.444,3.444,0,0,1,.082-.36,1.192,1.192,0,0,1,.179-.4.113.113,0,0,0-.026-.152c-.088-.082-.175-.164-.263-.246-.054-.05-.106-.013-.139.022-.194.21-.39.419-.574.637q-.377.449-.736.912c-.154.2-.294.409-.441.613-.051.071-.106.139-.148.194l-.575-.545c.055-.081.108-.157.158-.234.064-.1.12-.2.187-.3q.333-.47.674-.936c.051-.07.112-.132.164-.2.071-.094.058-.139-.027-.216a1.826,1.826,0,0,1-.274-.284.218.218,0,0,1,0-.2,5.215,5.215,0,0,1,.383-.432c.051-.054.053-.092,0-.143q-.43-.411-.857-.825c-.2-.19-.391-.382-.589-.571-.273-.259-.549-.515-.822-.774-.128-.121-.254-.245-.381-.367q-.462-.447-.925-.893-.535-.514-1.074-1.024c-.294-.278-.591-.553-.886-.83-.09-.085-.177-.174-.269-.258a.1.1,0,0,0-.082-.023c-.019.01-.031.053-.03.08.01.308.006.618.042.923.034.284.031.57.059.852s.025.571.058.852c.038.32.019.642.055.958a14.994,14.994,0,0,1,.045,1.88.917.917,0,0,1-.254.729c-.014.012-.028.045-.021.056a.086.086,0,0,0,.058.034,1.189,1.189,0,0,0,.136,0c-.029.147-.055.289-.086.431-.013.057-.044.111-.054.169a.679.679,0,0,0,.093.405.723.723,0,0,1,.069.465.456.456,0,0,1-.158.212c-.063.056-.079.089-.013.144a.462.462,0,0,1,.178.4.54.54,0,0,1-.289.386.067.067,0,0,0-.046.109,1.353,1.353,0,0,1,.166.487c.02.109.067.213.091.322.032.149.053.3.077.451.028.176.047.354.086.527a.666.666,0,0,1-.068.424.524.524,0,0,1-.272.279.09.09,0,0,0-.006.08.567.567,0,0,1,.182.259.214.214,0,0,1,.013.145.531.531,0,0,1-.2.291l-.149.083h-.19l-.242-.172a.313.313,0,0,1-.108-.281.4.4,0,0,1,.153-.3c.049-.039.067-.07-.006-.121a.561.561,0,0,1-.293-.482c0-.116-.007-.232,0-.347.016-.178.04-.355.07-.531.026-.153.066-.3.1-.455a3.29,3.29,0,0,1,.076-.333c.04-.119.1-.231.146-.348a.088.088,0,0,0-.023-.08.493.493,0,0,1-.291-.373.294.294,0,0,1,0-.143.579.579,0,0,1,.17-.275c.051-.047.046-.115,0-.135a.3.3,0,0,1-.189-.3,1,1,0,0,1,.054-.254,1.3,1.3,0,0,1,.082-.283.4.4,0,0,0,.021-.3,3.4,3.4,0,0,1-.108-.471c-.008-.076,0-.094.074-.093a.327.327,0,0,0,.1-.032.463.463,0,0,0-.057-.092.593.593,0,0,1-.169-.385c0-.047-.013-.093-.017-.14a2.6,2.6,0,0,1-.013-.264c0-.075.028-.149.029-.224,0-.426.006-.85.051-1.275.034-.32.026-.644.058-.967s.032-.632.055-.948c.029-.4.022-.8.061-1.2a7.026,7.026,0,0,0,0-.748.37.37,0,0,0-.027-.1.379.379,0,0,0-.1.045c-.173.151-.342.308-.516.459-.212.185-.428.364-.638.551s-.434.4-.654.6-.44.38-.659.571c-.169.148-.336.3-.5.45-.207.184-.416.367-.622.553q-.387.348-.772.7c-.138.125-.273.253-.413.377-.229.2-.461.4-.689.6-.116.1-.222.217-.339.32-.255.224-.515.442-.77.665-.282.247-.558.5-.842.746-.041.035-.116.028-.175.042a.4.4,0,0,0-.12.034c-.049.03-.087.077-.134.111a.151.151,0,0,0-.05.207c.023.05.037.1.059.155a1.089,1.089,0,0,1,.11.5c-.005.132.007.264,0,.4a1.106,1.106,0,0,1-.063.3,2.224,2.224,0,0,1-.163.316,1.608,1.608,0,0,1-.383.46,1.6,1.6,0,0,1-.658.351,4.005,4.005,0,0,1-.515.1,1.456,1.456,0,0,1-.377-.053,1.807,1.807,0,0,1-.31-.078,2.753,2.753,0,0,1-.282-.149,1.553,1.553,0,0,1-.576-.522,2.212,2.212,0,0,1-.185-.35,2.677,2.677,0,0,1-.1-.321c-.022-.076-.039-.154-.058-.23v-.23c.019-.083.036-.167.058-.249a2.3,2.3,0,0,1,.073-.237,1.721,1.721,0,0,1,.439-.654,2.221,2.221,0,0,1,.52-.347,1.918,1.918,0,0,1,1.007-.158,1.438,1.438,0,0,1,.335.1c.061.019.12.044.18.065a.687.687,0,0,1,.194.073c.072.057.117.016.165-.019.071-.052.137-.11.2-.167a.066.066,0,0,0,.024-.048c-.024-.169.1-.252.2-.342.184-.166.378-.32.567-.482q.333-.285.663-.573c.161-.141.32-.285.481-.426s.346-.3.517-.446c.2-.177.4-.357.606-.534.224-.2.45-.388.673-.583.2-.174.4-.35.6-.524.222-.193.445-.384.667-.576l.521-.45q.337-.291.674-.583c.2-.172.392-.346.59-.517s.379-.319.568-.48.366-.312.545-.473c.073-.065.063-.1-.011-.17-.3-.286-.6-.576-.9-.862-.273-.259-.549-.514-.823-.772q-.142-.134-.282-.27c-.338-.327-.673-.656-1.013-.981-.31-.3-.624-.588-.936-.882q-.282-.266-.561-.535c-.225-.218-.447-.44-.672-.657-.343-.329-.688-.656-1.032-.984q-.54-.515-1.08-1.031-.494-.47-.99-.938c-.138-.13-.278-.258-.417-.387-.068-.063-.12-.052-.161.03-.052.106-.113.209-.159.318a1.807,1.807,0,0,0-.069.239c-.031.116-.061.232-.093.348a.343.343,0,0,0-.021.071,6.068,6.068,0,0,0-.014.715,1.665,1.665,0,0,0,.062.561,3.135,3.135,0,0,1,.068.337c.041.134.1.262.154.392.042.1.081.2.13.3a1.215,1.215,0,0,0,.126.2c.133.172.27.341.409.508a.457.457,0,0,0,.095.077c.074.052.118.031.151-.058a1.54,1.54,0,0,1,.084-.164c.014-.027.027-.055.047-.1.038.065.079.127.113.192.055.105.1.213.157.319.081.158.16.316.247.47.043.075.108.137.153.211a3.037,3.037,0,0,0,.457.532c.011.011.011.033,0,.078-.089-.033-.178-.065-.266-.1-.165-.067-.33-.136-.494-.2l-.359-.152c-.065-.027-.131-.051-.2-.077-.083-.034-.165-.071-.249-.1-.12-.045-.241-.085-.362-.129a.686.686,0,0,1-.089-.049c.091-.058.169-.105.244-.158s.071-.094.008-.155c-.178-.174-.359-.346-.525-.532a5.57,5.57,0,0,1-.347-.458c-.088-.122-.174-.245-.251-.374-.056-.094-.1-.2-.145-.3-.022-.047-.045-.094-.064-.142-.053-.136-.114-.27-.154-.41a2.793,2.793,0,0,1-.066-.368,2.252,2.252,0,0,1-.037-.327c0-.223.011-.447.02-.67,0-.04.013-.08.016-.121.008-.1.006-.2.021-.3a7.121,7.121,0,0,0,.09-1.476,2.807,2.807,0,0,0-.1-.472,1.523,1.523,0,0,0-.069-.219q-.091-.225-.192-.447a1.631,1.631,0,0,0-.107-.17c.123.047.225.087.327.125s.177.064.266.094.2.064.3.1a.248.248,0,0,0,.052.018,6.886,6.886,0,0,0,.749.053c.263-.008.526-.06.788-.094.006,0,.01-.009.016-.01l.528-.064c.121-.014.242-.028.363-.038a2.324,2.324,0,0,1,.86.034c.132.038.275.035.41.064a1.863,1.863,0,0,1,.263.1c.062.024.124.047.185.073.116.051.236.1.347.158a6.54,6.54,0,0,1,.584.346c.2.139.383.3.573.453.073.059.142.124.218.179.055.041.1.008.116-.047.028-.075.051-.151.078-.226a.226.226,0,0,1,.022-.038,6.622,6.622,0,0,1,1.037,2.146,4.318,4.318,0,0,0-2.019-1.125c.086-.044.16-.08.233-.119a2.092,2.092,0,0,0,.2-.118c.043-.03.037-.062-.011-.1-.152-.106-.295-.225-.45-.324a2.121,2.121,0,0,0-.308-.136l-.142-.06a2.576,2.576,0,0,0-.244-.1,1.914,1.914,0,0,0-.3-.066c-.209-.03-.419-.063-.63-.073s-.4.006-.605.011l-.047,0c-.2.019-.4.031-.595.061a1.771,1.771,0,0,0-.306.1c-.121.042-.241.087-.361.132a1.114,1.114,0,0,0-.161.068c-.062.035-.045.09-.006.127.234.222.473.439.708.661.14.132.275.269.414.4q.352.336.707.67c.1.092.194.182.291.275.282.27.561.543.845.811.233.22.471.435.706.653.1.091.193.184.289.277.279.268.557.538.837.8q.452.431.908.858c.235.22.475.435.711.654.109.1.213.209.322.313l.979.93.724.689a.624.624,0,0,0,.06.044c.053.039.084.019.086-.04a3.213,3.213,0,0,0,0-.355.173.173,0,0,0-.073-.108.334.334,0,0,1-.11-.329.416.416,0,0,1,.195-.342c.055-.036.045-.1-.008-.136a.591.591,0,0,1-.228-.5c-.007-.308,0-.615,0-.923a.3.3,0,0,0-.208-.319.376.376,0,0,1-.061-.017.467.467,0,0,1-.065-.061c.111,0,.211,0,.31,0,.026,0,.067-.011.072-.026a.159.159,0,0,0-.016-.085c-.029-.09-.065-.178-.087-.27s-.023-.181-.041-.27a6.9,6.9,0,0,1,.042-.858,1.928,1.928,0,0,1,.034-.328c.009-.091.011-.183.02-.274s.025-.193.036-.29c.008-.066.016-.131.02-.2.026-.359.058-.719.073-1.078.012-.3.005-.6,0-.9,0-.114-.015-.228-.018-.342a1.826,1.826,0,0,0-.05-.469,4.65,4.65,0,0,1-.067-.483c-.018-.105-.056-.207-.084-.31-.02-.075-.037-.15-.061-.247a1.949,1.949,0,0,0,.2,0,.6.6,0,0,0,.126-.042.786.786,0,0,0-.047-.115.672.672,0,0,1-.088-.653,1.876,1.876,0,0,0,.066-.24.191.191,0,0,1,.032-.065.142.142,0,0,0,.01-.188.174.174,0,0,0-.207-.071.124.124,0,0,1-.156-.04c-.057-.082-.108-.083-.181-.016a.758.758,0,0,1-.071-.175.474.474,0,0,1,.033-.147c.007-.03.021-.067.01-.091-.042-.094-.031-.127.077-.172.021.1.082.094.153.056a2.3,2.3,0,0,0,.251-.14c.039-.027.058-.084.086-.126a.529.529,0,0,1,.078-.107.222.222,0,0,0,.048-.292c-.033-.055-.208-.117-.262-.074a.259.259,0,0,0-.071.16c-.009.073.022.091.133.114-.012.017-.021.041-.034.044-.081.017-.087.073-.088.142,0,.017-.045.045-.072.049-.117.017-.236.02-.352.043a.721.721,0,0,0-.181.085.637.637,0,0,0-.058.047c-.076.053-.186.09-.079.216.02.024,0,.08,0,.12a.178.178,0,0,1-.192-.109.446.446,0,0,0-.1-.106l-.2-.2a.219.219,0,0,0,.019-.3.894.894,0,0,1-.067-.247c-.02-.07-.046-.138-.073-.206-.051-.13-.1-.261-.156-.389a.746.746,0,0,0-.3-.394.839.839,0,0,1-.149-.129c.065-.095.121-.173.169-.255.008-.013-.017-.056-.036-.072s-.054-.011-.076-.025c-.059-.038-.1-.078,0-.128a.143.143,0,0,0,.067-.086c0-.015-.052-.039-.072-.065-.041-.053-.129-.078-.11-.161l.166-.045c-.035-.044-.073-.086-.1-.133s-.058-.1-.1-.175l.112-.009c.077-.005.087-.027.049-.093-.03-.051-.051-.107-.082-.156s.008-.068.045-.077c.09-.021.1-.068.058-.154a.716.716,0,0,1-.028-.237.14.14,0,0,1,.069-.012c.018,0,.035.024.047.041.024.033.049.087.089.035a.144.144,0,0,0-.008-.127.434.434,0,0,1,.027-.4.071.071,0,0,1,.068,0c.063.118.117.242.181.359a3.129,3.129,0,0,0,.182.284c.016.022.059.024.077.046.05.061.09.13.14.19s.071.124.157.071l.477.536c-.054.086-.1.15-.135.22a.169.169,0,0,0,.139.223.562.562,0,0,0,.114,0c.028,0,.072-.016.077-.033a.14.14,0,0,0-.019-.1c-.033-.059-.1-.109-.036-.171.076,0,.143.01.209.01a.052.052,0,0,0,.039-.032.08.08,0,0,0-.023-.056.845.845,0,0,0-.091-.067c.053-.015.12-.014.15-.047a.32.32,0,0,0,.079-.176.539.539,0,0,0-.145-.391.044.044,0,0,0-.014-.012.378.378,0,0,0-.423.105c0-.092-.037-.1-.109-.07a.161.161,0,0,1-.233-.074c.049,0,.1.013.154.013a.06.06,0,0,0,.045-.036.066.066,0,0,0-.026-.053.147.147,0,0,1,0-.269c.028-.018.062-.026.092-.042s.048-.029.072-.044l-.049-.068c.011,0,.031,0,.051,0,.057-.007.071-.034.038-.084-.085-.129-.047-.221.1-.263a.1.1,0,0,0,.047-.066c0-.025-.016-.055-.015-.082a.1.1,0,0,1,.028-.072.086.086,0,0,1,.079,0,.087.087,0,0,1,.018.075c-.019.077-.042.139.081.149.09.008.124.141.075.235a.382.382,0,0,0-.022.09.337.337,0,0,0,.1-.013,1.708,1.708,0,0,0,.17-.094.241.241,0,0,0,.067-.325.447.447,0,0,1-.077-.2.2.2,0,0,1,.076-.149.527.527,0,0,1,.2-.068c.051-.011.073-.023.054-.081a1.682,1.682,0,0,1-.039-.183l.068-.083h.038l.067.083a1.7,1.7,0,0,1-.039.183c-.019.057,0,.07.054.081a.5.5,0,0,1,.2.068.231.231,0,0,1,.076.159.377.377,0,0,1-.062.174c-.09.164-.064.271.093.36a1.2,1.2,0,0,0,.13.073.363.363,0,0,0,.1.011.286.286,0,0,0-.02-.1c-.051-.08-.02-.215.07-.224.109-.011.107-.054.08-.137s.03-.126.088-.093c.023.013.031.071.03.109s-.033.108.048.115a.155.155,0,0,1,.1.261c-.043.053-.017.081.043.085a.745.745,0,0,0,.085,0l0,0a.306.306,0,0,0-.045.027c-.015.013-.038.029-.039.045a.067.067,0,0,0,.034.048c.046.023.1.039.144.061a.178.178,0,0,1,.022.243.648.648,0,0,0-.068.07.546.546,0,0,0,.111.03.311.311,0,0,0,.091-.022.157.157,0,0,1-.222.089c-.079-.049-.112-.03-.122.057a.362.362,0,0,0-.416-.1.054.054,0,0,0-.022.016.534.534,0,0,0-.142.382c.005.058-.006.137.071.171l.149.063a1.052,1.052,0,0,0-.086.065c-.012.011-.025.036-.02.048a.065.065,0,0,0,.044.038c.066,0,.132,0,.207-.009.063.06-.006.108-.035.165a.179.179,0,0,0-.021.1c0,.014.051.025.08.029a.53.53,0,0,0,.095,0,.154.154,0,0,0,.156-.171,1.684,1.684,0,0,0-.131-.283l.473-.527c.05.036.076.02.11-.032a2.215,2.215,0,0,1,.192-.236,1.125,1.125,0,0,0,.085-.083c.064-.093.124-.189.183-.285s.1-.173.156-.26l.047-.08c.029.025.082.051.082.076a.671.671,0,0,1-.028.355c-.016.029,0,.074-.006.112a.588.588,0,0,0,.088-.024c.018-.008.031-.035.048-.039a.155.155,0,0,1,.069.011,1,1,0,0,1-.034.245c-.024.067-.023.133.035.146.081.019.1.105.043.174a.862.862,0,0,0-.073.123l.132.032c.006,0,.01.007.033.023a.994.994,0,0,1-.066.131c-.024.035-.062.06-.089.093-.014.018-.031.047-.025.064s.038.028.06.031a.675.675,0,0,0,.1,0l.021.028a.978.978,0,0,1-.135.154c-.087.066-.091.073,0,.148a.611.611,0,0,1,.063.072.408.408,0,0,1-.1.075c-.1.032-.111.074-.043.151a.412.412,0,0,1,.04.073c-.164.021-.216.084-.167.184.036.074.015.117-.066.11-.1-.008-.126.033-.119.127s-.046.133-.114.1a.109.109,0,0,0-.159.07c-.032.085-.072.07-.137.057a.182.182,0,0,0-.144.033c-.1.1-.153.094-.209-.035a.085.085,0,0,0-.076-.027c-.028.006-.049.045-.076.051a.234.234,0,0,1-.131,0,.123.123,0,0,1-.056-.148.148.148,0,0,0-.116-.193c-.049-.014-.092-.017-.094.05,0,.109,0,.218,0,.327,0,.086.045.111.114.135a1,1,0,0,1,.229.109.188.188,0,0,1,.055.12c.009.059,0,.122,0,.182a.15.15,0,0,0,.038.066.546.546,0,0,0,.051.052.215.215,0,0,1-.076.024c-.084-.007-.148,0-.136.086l-.121.058c.019.028.031.067.057.08.047.025.115.019.151.053.077.073.165.048.25.049a.11.11,0,0,0,.087-.044.206.206,0,0,0-.009-.108c-.006-.03-.031-.062-.024-.086a.779.779,0,0,1,.079-.192c.024-.039.074-.06.106-.094s.143-.066.072-.168c-.01-.015.016-.074.04-.091a.135.135,0,0,1,.1,0,.487.487,0,0,1,.1.064c-.1.091-.068.14,0,.174a.473.473,0,0,1,.186.236.174.174,0,0,1,0,.143.823.823,0,0,1-.171.233.98.98,0,0,1-.249.131.875.875,0,0,1-.144.037.391.391,0,0,1-.117-.051c-.145-.128-.337-.092-.5-.154a1.632,1.632,0,0,0-.335-.054l.021-.025c-.008-.049,0-.112-.029-.144s-.093-.04-.142-.059c.112-.038.138-.071.131-.175s-.025-.12-.142-.124-.139-.013-.215.162a.176.176,0,0,0,.082.226.365.365,0,0,1,.083.1c.025.035.04.081.072.1a2.252,2.252,0,0,0,.229.139c.108.06.133.051.175-.061a.122.122,0,0,1,.079.182.182.182,0,0,0,.006.1.507.507,0,0,1,.031.147.757.757,0,0,1-.071.174c-.068-.061-.12-.077-.175.01-.023.036-.105.077-.13.062-.125-.073-.186.027-.271.076s-.055.086-.019.142a.8.8,0,0,1,.092.18,1.339,1.339,0,0,1,.062.492.65.65,0,0,1-.132.342.342.342,0,0,0-.031.087.542.542,0,0,0,.106.026c.056,0,.113-.007.17-.005s.063.031.044.084a1.991,1.991,0,0,0-.1.336c-.034.21-.053.423-.079.635a2.7,2.7,0,0,0-.036.318,18.215,18.215,0,0,0,.054,2.071c.022.191.026.385.04.577.024.324.061.648.072.973.013.348.01.7,0,1.046a1.251,1.251,0,0,1-.092.305c-.007.023-.022.056-.012.069a.1.1,0,0,0,.07.032c.1,0,.2,0,.323,0-.054.032-.09.057-.13.076a1.534,1.534,0,0,0-.181.08.181.181,0,0,0-.09.175c.009.157,0,.315,0,.472a5.652,5.652,0,0,1,0,.566.56.56,0,0,1-.211.438.1.1,0,0,0,0,.147.439.439,0,0,1,.174.234.406.406,0,0,1-.136.485.118.118,0,0,0-.045.077c0,.131,0,.262,0,.393,0,.058.032.085.084.043s.128-.117.194-.174c.287-.246.577-.491.863-.738.236-.2.47-.409.7-.615l.606-.533c.141-.123.281-.247.423-.369.192-.164.388-.324.578-.49s.359-.327.542-.486c.235-.2.476-.4.71-.6.3-.262.6-.532.9-.793.342-.293.689-.58,1.034-.869s.682-.578,1.028-.862a1.089,1.089,0,0,0,.36-.645,1.956,1.956,0,0,0,.022-.408c0-.156-.013-.311-.017-.467,0-.058-.032-.072-.079-.067a4.7,4.7,0,0,0-.509.062,2.93,2.93,0,0,0-.411.151c-.056.022-.111.048-.166.074-.109.05-.221.1-.327.154-.145.079-.29.161-.428.253s-.252.188-.374.286c-.045.036-.045.071.019.1s.149.072.224.107c.034.016.071.028.106.042l-.1.045c-.161.077-.325.148-.481.235-.19.105-.376.218-.556.339a4.249,4.249,0,0,0-.466.349c-.152.136-.286.293-.428.44l-.021-.016c.028-.091.055-.182.083-.273s.06-.187.087-.282a2.292,2.292,0,0,1,.065-.25c.067-.164.14-.325.221-.483a3.194,3.194,0,0,1,.269-.472c.189-.251.4-.486.6-.728a2.769,2.769,0,0,1-.011.319.259.259,0,0,0,.027.085.327.327,0,0,0,.09-.033c.047-.035.083-.084.131-.116.179-.118.361-.233.543-.346a1.854,1.854,0,0,1,.208-.114q.235-.108.474-.207c.079-.033.161-.057.243-.081s.181-.054.273-.075c.15-.035.3-.065.451-.1.03-.007.08-.02.083-.038a.125.125,0,0,0-.03-.1c-.062-.056-.135-.1-.2-.15a1.053,1.053,0,0,0-.576-.2,2.442,2.442,0,0,0-1.1.1,1.941,1.941,0,0,1-.211.061,2.229,2.229,0,0,0-.245.066,3.424,3.424,0,0,0-.33.156c-.17.09-.34.181-.505.279-.141.084-.275.18-.414.267-.118.074-.121.088-.006.17.014.01.034.012.05.022l.275.173a1.057,1.057,0,0,0-.113.035c-.192.092-.388.176-.574.279a5.965,5.965,0,0,0-.54.34c-.179.126-.35.265-.52.4-.068.055-.125.123-.189.183a.048.048,0,0,1-.044,0,.041.041,0,0,1-.013-.037c.047-.146.091-.293.147-.435.046-.118.108-.23.16-.346a6.074,6.074,0,0,1,.246-.56c.136-.239.295-.465.453-.69.079-.112.178-.209.277-.323-.015.141-.03.262-.041.384,0,.049.017.094.07.063a2.151,2.151,0,0,0,.2-.148c.112-.083.223-.168.339-.244.17-.111.344-.215.517-.32.112-.068.224-.138.34-.2s.224-.106.338-.154c.072-.03.148-.054.222-.079s.15-.051.226-.072c.126-.035.253-.068.38-.1.03-.008.062-.006.092-.012a1.668,1.668,0,0,1,.246-.044,2.069,2.069,0,0,1,.464.044,2.034,2.034,0,0,1,.454.138,2.085,2.085,0,0,1,.472.331,2.24,2.24,0,0,1,.5.651c.021.039.059.092.093.1a.807.807,0,0,1,.315.118.816.816,0,0,1,.439.705c0,.073,0,.148,0,.22a.106.106,0,0,0,.06.072,2,2,0,0,1,.342.105,2.144,2.144,0,0,1,.566.468.679.679,0,0,0,.144.15c.087.052.19.076.28.124a1.662,1.662,0,0,1,.551.436,2.716,2.716,0,0,1,.231.367,1.647,1.647,0,0,1,.107.271c.025.075.039.153.058.23Zm-23.315,14.81a1.627,1.627,0,0,0,.084.409,1.951,1.951,0,0,0,.3.416.784.784,0,0,0,.456.263,4.522,4.522,0,0,0,.665.011c.005,0,.011-.006.016-.009a1.938,1.938,0,0,0,.3-.164,1.534,1.534,0,0,0,.334-.328.945.945,0,0,0,.135-.349.777.777,0,0,0,.006-.432c-.013-.035-.01-.074-.02-.11s-.017-.073-.034-.077a.127.127,0,0,0-.1.016.534.534,0,0,1-.456.155c-.159-.009-.354-.251-.316-.391a.579.579,0,0,1,.194-.326c.053-.041.047-.138-.005-.148-.121-.024-.244-.044-.366-.059a1.063,1.063,0,0,0-.32.049.949.949,0,0,0-.477.238A1.125,1.125,0,0,0-229.565-173.995Zm20.483,1.181,0-.014a1.269,1.269,0,0,0,.28-.025,2.373,2.373,0,0,0,.333-.154.955.955,0,0,0,.42-.483,1.039,1.039,0,0,0,.065-.444,1.012,1.012,0,0,0-.2-.589.911.911,0,0,0-.411-.323.946.946,0,0,0-.495-.1,2.663,2.663,0,0,0-.308.063c-.011,0-.025.056-.016.073a1.268,1.268,0,0,0,.1.141.319.319,0,0,1-.02.453.3.3,0,0,1-.417.084,2.331,2.331,0,0,1-.236-.143c-.049-.033-.073-.025-.089.03a1.187,1.187,0,0,0-.068.248,1.249,1.249,0,0,0,.024.424,1.031,1.031,0,0,0,.209.37,1.123,1.123,0,0,0,.406.3A2.083,2.083,0,0,0-209.081-172.814ZM-219.673-195.9c.127-.038.1-.13.094-.225a.238.238,0,0,1,.064-.172,1.226,1.226,0,0,1,.226-.114c.041-.022.106-.052.109-.083a2.739,2.739,0,0,0,0-.384c0-.017-.043-.048-.064-.046-.1.008-.142.055-.142.16a.2.2,0,0,1,0,.076.346.346,0,0,1-.084.136c-.037.028-.085.011-.127-.036-.068-.077-.092-.067-.131.022s-.14.11-.177.04c-.048-.09-.111-.079-.191-.064a.121.121,0,0,1-.105-.038c-.047-.089-.1-.125-.2-.09-.069.024-.083.048-.042.113a1.719,1.719,0,0,1,.091.169c.047.1.089.193.136.288.068.136.137.272.209.406a.085.085,0,0,0,.061.041c.076,0,.137.01.169.089a.051.051,0,0,0,.036.026.628.628,0,0,0,.391-.065.081.081,0,0,0,.01-.068.6.6,0,0,0-.115-.04C-219.428-195.939-219.621-195.792-219.673-195.9Zm1.425-2.909a.176.176,0,0,0,.063,0,.5.5,0,0,0,.142-.083c.013-.013-.015-.071-.026-.107s-.059-.119-.041-.151c.048-.083,0-.088-.054-.11-.03-.012-.053-.043-.082-.061a.436.436,0,0,0-.1-.043c-.143-.042-.221.1-.337.129-.008,0-.009.038-.011.058a.289.289,0,0,1-.005.074c-.08.2-.082.2.05.276a.233.233,0,0,0,.078.02.553.553,0,0,0,0,.155,1.078,1.078,0,0,0,.1.207.4.4,0,0,0,.078.077.455.455,0,0,0,.071-.084.813.813,0,0,1,.078-.18C-218.181-198.694-218.195-198.741-218.247-198.805Z" transform="translate(230.25 200.36)"/></svg>