<svg xmlns="http://www.w3.org/2000/svg"><symbol id="irksk" viewBox="0 0 37 27"><path d="M15.9 27a4.8 4.8 0 00-.45-.31c-.35-.19-.7-.36-1.06-.54l-1.02-.53-1.07-.57c-.1-.05-.18-.1-.27-.17l.23-.36.29-.5c.08-.14.07-.23-.03-.32a2.85 2.85 0 00-.29-.21l-1.15-.7a1.28 1.28 0 01-.47-.4l-.67-1.04a.28.28 0 00-.44-.1l-.73.5a3.14 3.14 0 01-.58.38c-.48.18-.97.33-1.46.48a1.62 1.62 0 01-.62.1c-.27-.03-.54-.06-.81-.07-.32 0-.38.14-.44.36a.17.17 0 00.06.14 2.44 2.44 0 00.7.34 4.29 4.29 0 01.48.2 3.76 3.76 0 01.59.4 4.03 4.03 0 01.55.56 5.9 5.9 0 01.41.65.51.51 0 01.1.3l-.1-.03-.91-.3c-.13-.04-.21 0-.24.13-.07.28-.11.56-.17.84a4.13 4.13 0 01-.09.38c-.03.1-.1.11-.17.06a1.66 1.66 0 01-.2-.16l-.83-.8a1.48 1.48 0 00-.61-.37.53.53 0 00-.61.16c-.16.22-.3.44-.43.67-.08.13-.15.28-.23.45a.69.69 0 01-.05-.13c-.04-.26-.07-.53-.13-.8a.82.82 0 00-.51-.63c-.3-.11-.57-.24-.86-.36a.45.45 0 01-.27-.4 2.59 2.59 0 00-.12-.58 3.7 3.7 0 00-.3-.56.5.5 0 01-.07-.55 3.28 3.28 0 01.5-.63c.2-.21.43-.4.64-.6s.46-.42.67-.65a1.04 1.04 0 00.2-.32 1.58 1.58 0 00.04-.84c-.06-.4-.16-.8-.23-1.2a.7.7 0 01.08-.5c.4-.64.83-1.26 1.23-1.9.29-.45.56-.92.81-1.38a1.15 1.15 0 00.15-.5.95.95 0 00-.2-.58 5.14 5.14 0 00-.98-.91 7.5 7.5 0 01-.58-.49 5.16 5.16 0 01-.5-.6 8.47 8.47 0 01-.89-1.56 3.72 3.72 0 01-.2-.55q-.21-.8-.4-1.61a4.29 4.29 0 01-.15-1.15c.02-.38.02-.75.02-1.13l-.02-1.03L1.02 3c0-.16 0-.32-.02-.47a2.1 2.1 0 00-.06-.34 3.02 3.02 0 00-.42-.86L0 .54V.36A.63.63 0 01.28.1L.5 0h.38L.9.02c.23.05.45.08.67.14.36.08.7.17 1.06.27a3.77 3.77 0 01.98.4 3.71 3.71 0 011.12 1.05 5.6 5.6 0 01.64 1.33 5.67 5.67 0 01.18 1.45l.02.65.02 1.04.04 1.55a4.97 4.97 0 00.1.75c.09.4.17.8.28 1.2a6.97 6.97 0 00.35 1.06 5.51 5.51 0 00.53.81c.09.14.18.28.39.24a.63.63 0 01.15 0h.1c.25 0 .5 0 .76-.02l.8-.08.63-.06.72-.1a22.12 22.12 0 011.99-.16 50.45 50.45 0 011.43.06l1.06.06.67.04c.32.01.64.04.96.03h.42a11.9 11.9 0 001.3-.03 1.53 1.53 0 00.59-.15 4.7 4.7 0 00.9-.67l.9-.83a5.58 5.58 0 01.6-.46c.46-.31.93-.6 1.4-.9a1.74 1.74 0 00.69-.77l.37-.9c.15-.37.28-.73.44-1.09a6.94 6.94 0 01.9-1.34l.66-.85a.48.48 0 00.1-.21c.04-.38.08-.76.1-1.14l.04-1.14a1.11 1.11 0 01.08-.3c.03-.07.08-.09.16-.06a2.84 2.84 0 01.94.51 1.05 1.05 0 00.82.2c.26-.03.5-.08.75-.1a6.42 6.42 0 01.71-.07 11.26 11.26 0 011.18.05 8.13 8.13 0 01.88.18.57.57 0 00.43-.04l.59-.37a2.86 2.86 0 01.82-.39c.04-.01.11 0 .13.03a.45.45 0 01.05.2c0 .11-.03.22-.04.33-.02.15-.04.3-.04.46a2.43 2.43 0 00.02.52 1.58 1.58 0 00.38.66 1.1 1.1 0 01.29.74l-.08 1.34-.73.04v.25l.67-.12-.07.27-.58.03v.22l.54-.08-.08.28h-.41v.22l.36-.1-.19.34-.56.93c-.12.18-.12.18.04.32a.5.5 0 01.05.04c.13.15.28.3.4.46a3.45 3.45 0 01.54.97 3.78 3.78 0 01.18.9c.03.34.03.67.04 1l.02.88c0 .1.02.19.03.26.14.04.29.07.42.12a.24.24 0 01.16.2.25.25 0 01-.22.27c-.05.01-.08.02-.09.08L34.33 14a1.29 1.29 0 01-.2.53.44.44 0 00-.06.19l-.05.4-.04.6.17-.02a3.4 3.4 0 00.83-.22.55.55 0 01.38-.02 1.5 1.5 0 01.6.35 2.43 2.43 0 00.3.26l.61.34.1.06a3.35 3.35 0 01-.38.06 1.86 1.86 0 00-.22.06 2.05 2.05 0 00.1.2l.52.76v.06a.53.53 0 01-.1-.03l-.47-.28a.2.2 0 00-.24-.01c-.08.06-.06.14-.04.21l.08.26.06.29-.04.01-.16-.17c-.08-.09-.15-.2-.29-.21-.2-.02-.42-.02-.62-.02H35a2.2 2.2 0 01-.27 0 .88.88 0 01-.29-.09 2.57 2.57 0 00-.4-.22 2.45 2.45 0 00-.53-.05 7.44 7.44 0 00-1.15.07c-.36.04-.72.05-1.08.07l-1.24.02H30s-.05.04-.05.06l.04.52.08.95a.16.16 0 00.06.11c.4.26.8.53 1.22.78a3.28 3.28 0 00.65.35 7.04 7.04 0 00.93.22 1.03 1.03 0 00.37.01c.26-.05.52-.13.79-.18a2.04 2.04 0 01.55-.01 1.73 1.73 0 01.71.32 1.97 1.97 0 00.68.35 1.45 1.45 0 01.27.11v.03l-.14.05-.57.22a.27.27 0 00-.16.34l.2.41.35.74a.33.33 0 01.01.09 1.29 1.29 0 01-.23-.04l-.6-.24-.21-.09c-.1-.03-.13 0-.14.09v.49l.03.3v.33h-.04l-.07-.06-.4-.4a.62.62 0 00-.47-.2h-.5l-.31.02a.7.7 0 01-.68-.23.7.7 0 00-.12-.12.77.77 0 00-.38-.23 10.59 10.59 0 00-1.36-.08h-.77l-.68-.02c-.06 0-.09.01-.1.08a1.42 1.42 0 01-.1.35c-.13.29-.26.58-.42.86a4.16 4.16 0 01-.4.58c-.13.15-.2.15-.3-.03a8.46 8.46 0 01-.41-.84c-.15-.35-.26-.71-.4-1.07 0-.02-.03-.06-.05-.06a44.08 44.08 0 00-.81-.09c-.24-.02-.48-.03-.71-.06l-.72-.1-.77-.1-.9-.2a.93.93 0 01-.55-.33l-.69-.91a.6.6 0 00-.41-.28l-.34-.03-.84-.08-.6-.04-1.04-.06-.61-.02-.28-.02-.66-.1c-.3-.04-.59-.1-.89-.12a20.98 20.98 0 00-.96-.08c-.06 0-.15.03-.16.06s.02.12.04.18a.21.21 0 00.07.07l.67.49c.16.12.34.23.5.36a1.56 1.56 0 01.41.7 1.15 1.15 0 01.08.67 2.29 2.29 0 01-.59 1.05c-.17.18-.37.34-.54.52a5.47 5.47 0 00-.37.46c-.06.08-.03.16.07.17.37.04.74.08 1.12.1.3.02.6.02.91.03a.92.92 0 01.21.02 2.94 2.94 0 01.8.3 2.73 2.73 0 01.52.38 2.65 2.65 0 01.35.48 2.4 2.4 0 01.18.37c.02.06 0 .1-.08.07-.24-.07-.5-.13-.73-.21a3.8 3.8 0 00-.93-.19 6.54 6.54 0 00-.81-.02 3.08 3.08 0 00-.6.1.28.28 0 00-.22.28l-.02.5-.06.36zm-3.89-10.78c-.24.5-.48 1-.73 1.48a5.97 5.97 0 01-1.1 1.5c-.18.18-.38.36-.58.53l-.58.5-.91.69a16.2 16.2 0 01-1.5 1l-.46.28a.08.08 0 00.06.02l.9-.24a6.39 6.39 0 002.05-.9l1.27-.85a6.18 6.18 0 00.99-.8l.74-.8c.17-.18.18-.17.37-.04a3.2 3.2 0 001.17.55l1.05.17a9 9 0 00.98.1c1 .02 2.01.01 3.02.02.34 0 .69.01 1.03.05a5.02 5.02 0 01.75.15c.21.05.42.14.65.22l-.2-.14a3.5 3.5 0 00-.79-.46 5.37 5.37 0 00-1.26-.28 13.14 13.14 0 00-.96-.1c-.39-.03-.79-.04-1.18-.06l-.34-.02c-.15-.02-.3-.02-.46-.05a22.7 22.7 0 01-1.74-.29 3.67 3.67 0 01-.74-.26 1.5 1.5 0 01-.94-.95l-.41-1.33-.15.32zm20.71-2.78a.46.46 0 00-.12.2 5.37 5.37 0 00-.1.55 1.6 1.6 0 000 .68l.11.46a.17.17 0 00.11.13l.29.14a1.16 1.16 0 00.74.12 1.93 1.93 0 00-.1-.36c-.2-.44-.34-.9-.52-1.36l-.24-.54a.1.1 0 00-.08-.06.11.11 0 00-.09.04zm-1.9-3.35a.47.47 0 00-.1.23 3.33 3.33 0 000 .38c-.01.29-.03.57-.02.85a.97.97 0 01-.18.58.4.4 0 00-.05.48 1.63 1.63 0 00.12.15.66.66 0 01.2.51l-.01.27-.08.62c-.02.12 0 .16.1.22l.73.42c.18.1.36.22.54.34l.02-.02-.26-.84a2.12 2.12 0 01-.08-.49l-.02-1.35a.97.97 0 00-.18-.56 1.14 1.14 0 01-.18-.36 3.08 3.08 0 01-.1-.94.82.82 0 00-.13-.44.21.21 0 00-.18-.11.18.18 0 00-.14.06zm-2.1-4.06a1.39 1.39 0 00-.76.3 5.89 5.89 0 011.67-.09v-.21h-.9zm.12-.46a3.03 3.03 0 00-.57.06c-.23.05-.46.13-.7.2l.01.05a6.58 6.58 0 012.13-.1V5.6h-.3c-.17-.01-.35-.03-.53-.03zm.9-.17l.02-.17c0-.05-.03-.08-.09-.09l-.38-.02h-.96a4.98 4.98 0 00-1.13.14l.75-.01a8.25 8.25 0 011.78.15zm2.5-1.37a.53.53 0 00.5.52.51.51 0 00.51-.52c.05-.22-.23-.5-.49-.5a.53.53 0 00-.53.5zm-2.33-.51a.51.51 0 00-.51.5.52.52 0 00.5.52.5.5 0 00.51-.52.5.5 0 00-.5-.5zm-3.67-1.4a2.2 2.2 0 00-.1 1.24 1.87 1.87 0 00.15.44.3.3 0 00.4.06.27.27 0 00.03-.38 4.41 4.41 0 01-.26-.46 1.9 1.9 0 01-.1-.82 1.69 1.69 0 00-.03-.22h-.03l-.07.15zm6.3 1.93a.2.2 0 01.22-.18.17.17 0 01.19.18.2.2 0 01-.2.17.2.2 0 01-.2-.17zm-2.81-.01a.19.19 0 01.18-.18.19.19 0 01.2.17.2.2 0 01-.19.19.18.18 0 01-.2-.18z"/></symbol><symbol id="krsnk" viewBox="0 0 31 37"><path d="M24.28 37h-.02a.14.14 0 00-.02-.04l-.91-1.38a.58.58 0 01-.71-.32l-.17-.33h-.04l-.4.78-.15-.03-.02-.19-.03-.47a2.57 2.57 0 010-.92 1.53 1.53 0 01.42-.76 1.73 1.73 0 01.8-.4.66.66 0 01.4 0 4.92 4.92 0 011.07.55v-.11c0-.22.1-.31.32-.26l.5.16c.13.04.18 0 .18-.13v-.25a.2.2 0 01.17-.2.6.6 0 01.21 0l.25.05a2.4 2.4 0 00.02-.99 6.39 6.39 0 00-.39-1.23.14.14 0 00-.06-.08l-.86-.35c-.32-.13-.66-.23-.97-.39a1.43 1.43 0 00-.75-.13 3.85 3.85 0 01-1.25-.05.45.45 0 01-.28-.18 1.06 1.06 0 01-.12-.83c.02-.07.05-.16-.06-.22a3.04 3.04 0 01-1.09-.83 5.72 5.72 0 01-.6-.95c-.14-.28-.27-.56-.43-.82-.12-.22-.22-.25-.46-.16a11.22 11.22 0 00-1.87.86c-.08.04-.19.1-.21.17a4.32 4.32 0 00-.13.59.08.08 0 00.02.06 3.15 3.15 0 00.3.24c.36.24.73.47 1.09.72a1.19 1.19 0 01.56.78.6.6 0 01-.28.64 2.25 2.25 0 01-.8.17.28.28 0 00-.17.07l-.53.58-.59.67-1.04 1.27a2.09 2.09 0 00-.5.96 1 1 0 01-.27.57 1.75 1.75 0 01-.66.4.57.57 0 01-.58-.06c-.15-.13-.28-.28-.43-.4a.59.59 0 00-.27-.15 4.16 4.16 0 00-.57 0l-.16 1.36a.42.42 0 01-.05-.05 8.54 8.54 0 01-.87-1.37.35.35 0 00-.11-.14l-.6-.37a.17.17 0 00-.26.03l-.28.38a1.01 1.01 0 01-.35.34 1.92 1.92 0 000-.21 3 3 0 01.09-1.2 4.35 4.35 0 01.62-1.25.39.39 0 01.12-.12 3.5 3.5 0 01.43-.21.66.66 0 01.6.03 3.14 3.14 0 00.4.2.35.35 0 00.22.04 6.96 6.96 0 011.46-.2.95.95 0 00.6-.2c.04-.04.07-.09.12-.12a2.83 2.83 0 00.75-.96.48.48 0 00-.03-.61 3.88 3.88 0 00-.5-.44c-.26-.18-.54-.33-.81-.5a2.2 2.2 0 01-.62-.5 4.2 4.2 0 01-.58-1.06l-.59-1.6a.2.2 0 00-.06-.1L11 24.6a.6.6 0 01-.32-.35 1.19 1.19 0 01-.07-.62.89.89 0 01.69-.66c.17-.05.35-.06.52-.11.44-.15.87-.31 1.31-.45a7.45 7.45 0 01.89-.2c.27-.05.55-.07.82-.1l.97-.1.64-.04 1.26-.07.67-.03c.15 0 .29-.02.44-.03a1.3 1.3 0 00-.32-.47.14.14 0 00-.09-.02c-.33 0-.67 0-1.01-.03-.32-.01-.64-.05-.96-.09a4.06 4.06 0 01-1.48-.48 2.9 2.9 0 01-1-.95 4.5 4.5 0 01-.53-1.25 2.75 2.75 0 00-.28-.03h-2.19a.27.27 0 00-.1.02l-.5.24a.62.62 0 00-.42.7 1.85 1.85 0 01-.02.3c0 .24-.2.37-.35.52a2.14 2.14 0 00-.28.27 1.4 1.4 0 00-.17.68c-.02.14-.02.28-.03.43-.17-.14-.32-.28-.48-.4a.77.77 0 00-.7-.2l.12.67a.28.28 0 01-.1-.08l-.3-.25a4.06 4.06 0 00-1.12-.5.96.96 0 01-.49-.27 3.65 3.65 0 01-.27-.37.65.65 0 010-.87 3.47 3.47 0 01.73-.72c.11-.1.23-.17.35-.26l-.97-.87a.34.34 0 01.02-.05l.6-1.06a2.21 2.21 0 00.24-1.06 1.1 1.1 0 00-.48-.89 2.02 2.02 0 00-.95-.39.93.93 0 00-.85.3 3.5 3.5 0 00-.47.66 8.52 8.52 0 00-.59 1.45l-.11.33h-.04L3 15.7a2.94 2.94 0 01.04-1.26 2.05 2.05 0 01.58-1.02 2.1 2.1 0 01.75-.47 3.62 3.62 0 01.79-.19 2.43 2.43 0 01.97.11 2.94 2.94 0 011.93 1.57 2.26 2.26 0 01.13 1.57 3.49 3.49 0 01-.54 1.11c-.08.12-.07.19.04.26l.18.12a.13.13 0 00.19-.02l.3-.36c.27-.27.45-.47.86-.32l.36.1a1.54 1.54 0 00.03-.18.33.33 0 01.22-.33c.32-.1.64-.22.97-.3.5-.11 1-.2 1.51-.29l.29-.05c-.11-.2-.23-.38-.32-.58s-.15-.4-.22-.62l-.03.07a4.2 4.2 0 01-.4.96.6.6 0 01-.58.31 10.69 10.69 0 01-.64-.1c-.14-.01-.27-.05-.41-.08l.66-.3a.72.72 0 00.43-.62 2.82 2.82 0 01.08-.52 3.7 3.7 0 01.24-.54.13.13 0 00-.01-.16l-.45-.66c-.35-.47-.68-.94-1.04-1.38-.33-.4-.7-.78-1.05-1.16a2.22 2.22 0 00-.78-.53 3.63 3.63 0 00-.45-.12l-.01.03.66.62H8.2l-.77-.05a.8.8 0 01-.58-.3 6 6 0 00-.26-.3l-.31.35-.83.86-.84.88-.83.86-1.33 1.37-.38.4.66.66-.34.38-.32.35c-.05.07-.08.07-.13.02l-.4-.4c-.43-.4-.85-.83-1.27-1.25L0 13.97v-.08l.12-.12.52-.61.61.58.4-.43.72-.75.77-.81.74-.77 1-1.03.9-.95a.13.13 0 00.02-.03l-.37-.26v-.34c.01-.23.1-.35.29-.4a2.2 2.2 0 00.3-.1.12.12 0 00.06-.08l-.03-.18c-.01-.17-.05-.36.1-.48A.68.68 0 016.47 7a1.26 1.26 0 01.3.01c.03-.14.05-.27.09-.4a.42.42 0 01.37-.35 3.04 3.04 0 01.42 0 .76.76 0 01.57.2L9.8 4.85l-.54-.58.63-.67.55.5 1.25-1.2-.95-.92c.05-.04.09-.06.12-.1L12.6.1l.08-.1h2.5l.02 1.48v.78a.47.47 0 01-.16.37l-.68.74c-.33.36-.68.71-1.01 1.08-.06.05-.1.05-.15 0l-.39-.4-.44-.43-1.07 1.23.47.45c.04.04.14.07.06.16l-.65.65-.55-.47c-.03-.03-.07-.06-.1.01l-.06.06-1.36 1.4a.56.56 0 00-.04.05l4.55 3.76.37-.35-.31-.07a.37.37 0 01-.3-.32l-.12-.81-.06-.77a5.18 5.18 0 002.18-.07.29.29 0 00-.13-.04l-.6-.05c-.4-.03-.77-.08-1.15-.1a10.16 10.16 0 00-.94 0 1.1 1.1 0 00-.6.14 1.07 1.07 0 01-.56.19 2.2 2.2 0 01.03-.29.74.74 0 01.73-.53c.28-.02.57-.01.85 0l1.35.02.72.03c.14 0 .27.03.4.04a.88.88 0 00.12 0 .84.84 0 00-.76-.35c-.45 0-.91.03-1.37.05-.23 0-.34-.12-.35-.36a3.64 3.64 0 01.18-1.3 1.64 1.64 0 01-.17-.08.17.17 0 01-.07-.08.55.55 0 01.3-.63 3.11 3.11 0 01.92-.14c.28-.02.56 0 .82 0l.18-.4a.4.4 0 01.33-.24c.28-.03.56-.04.84-.05h.68a2.18 2.18 0 01.44-.85.9.9 0 011.23-.21 1.26 1.26 0 01.38.54l.15.35H20a2.03 2.03 0 01.83.23 2.99 2.99 0 011 .82 4.61 4.61 0 01.72 1.24 6.21 6.21 0 01.46 1.68c.04.4.1.82.1 1.23.01.65-.02 1.29-.04 1.93 0 .3-.03.6-.04.9a18.23 18.23 0 000 2.45.42.42 0 00.57.41c.1-.02.2-.05.33-.1a4.04 4.04 0 01-.32.5.59.59 0 01-.63.22 3.45 3.45 0 01-.44-.17.86.86 0 01-.5-.64c-.06-.28-.1-.56-.15-.86a1.9 1.9 0 00-.12 1.04 1.46 1.46 0 00.63.94l.55.4-.37.05a8.19 8.19 0 01-.65 0 .68.68 0 01-.45-.15l-.21-.2v1.69a.57.57 0 00.05.2 1.36 1.36 0 00.55.6c.54.36 1.1.69 1.65 1.02a4.6 4.6 0 011.1.81.95.95 0 01.31.7 1.51 1.51 0 00.04.28 4.38 4.38 0 001.04-.75 2.63 2.63 0 00.73-1.78 6.84 6.84 0 00-.02-.77c-.01-.14-.04-.27-.06-.41l-1.02.97v-.63a3.55 3.55 0 000-.75 5.28 5.28 0 00-.58-1.51.76.76 0 01-.09-.74l.22-.45a.6.6 0 00.09-.24c-.02-.38-.06-.76-.07-1.15 0-.35 0-.7.03-1.04a4.75 4.75 0 01.07-.66 8.83 8.83 0 01.24-.98 7.8 7.8 0 01.36-.9c.08-.16.19-.32.28-.48a.73.73 0 00-.64-.07 1.15 1.15 0 00-.94.74 1.9 1.9 0 01-.06-.33 1.83 1.83 0 01.15-.88 1.35 1.35 0 01.3-.43 1.72 1.72 0 011.08-.37 1.33 1.33 0 01.78.18l.45.29a3.45 3.45 0 011.33-.42 4.08 4.08 0 01.83.02 1.84 1.84 0 011.12.64 1.36 1.36 0 01.3.59l.1.39v.5a.16.16 0 00-.02.03 4.39 4.39 0 01-.13.47 2.18 2.18 0 01-.76.88 1.28 1.28 0 01-.8.3 1.5 1.5 0 01-.6-.15 3.64 3.64 0 01-1.21-1.08l-.3-.35a.21.21 0 00-.02.02l-.06.09a3.08 3.08 0 00-.56 1.63 4.72 4.72 0 00.16 1.5l.15.47.22-.07a1.39 1.39 0 01.62-.04.9.9 0 01.68.73 8.48 8.48 0 01.2 1.3 6.82 6.82 0 00.13.73 4.42 4.42 0 00.74 1.47l-.01.04-1.33-.51c.03.29.08.58.08.88a10.8 10.8 0 01-.07 1.26 4.7 4.7 0 01-.34 1.21 3.75 3.75 0 01-1.04 1.44 4.07 4.07 0 01-1.66.85c-.08.02-.11.07-.1.16v2.2l-.02.15a2.61 2.61 0 000 .65 2.68 2.68 0 00.74 1.2.13.13 0 00.08.03 6.5 6.5 0 01.66-.06 8.46 8.46 0 011.11.08.68.68 0 01.65.58 5.27 5.27 0 01.07 1.15c-.03.51-.04 1.02-.05 1.53-.01.16-.03.31-.03.47l.05 1.86.09 1.23c.01.23-.01.46-.02.7a.36.36 0 01-.26.35 1.5 1.5 0 01-.86.03.27.27 0 00-.36.24c-.04.2-.07.4-.28.5-.1.05-.18.1-.27.13a4.7 4.7 0 00-.55.2.52.52 0 01-.26.06c0-.06.04-.13.02-.16a1.98 1.98 0 01-.24-.76c-.02-.14-.11-.25-.22-.24a1.02 1.02 0 00-.65.33.65.65 0 00-.11.47l.02.83zm3.76-27.72a3.42 3.42 0 00.63.86.68.68 0 00.75.1.5.5 0 00.22-.61.7.7 0 00-.18-.34 1.12 1.12 0 00-.92-.18c-.17.04-.32.1-.5.17z"/></symbol><symbol id="msc" viewBox="0 0 32 37"><path d="M32 22.04v.48a.23.23 0 00-.02.03c-.03.12-.05.24-.1.36a.15.15 0 01-.23.08 3.64 3.64 0 01-.4-.2 1.5 1.5 0 01-.6-.65.5.5 0 01-.05-.33.85.85 0 01.34-.45.44.44 0 00.2-.38 1.68 1.68 0 00-.23-.69.1.1 0 00-.08-.03.35.35 0 01-.33-.27 1.87 1.87 0 01-.06-.56.18.18 0 00-.04-.1 33.37 33.37 0 00-1.2-1.25.22.22 0 00-.37 0c-.21.23-.4.46-.62.68l-.67.67a6.56 6.56 0 01-.6.5.21.21 0 00-.1.25l.23.02c.14 0 .3 0 .44-.02a1.04 1.04 0 00.3-.07.54.54 0 01.56.09 1.16 1.16 0 01.44.87c0 .03.01.07.03.08a.65.65 0 01.2.31 2.13 2.13 0 00.16.31q.24.36.5.7a2.18 2.18 0 00.33.33 1.06 1.06 0 01.33.45 2.75 2.75 0 01.14.88 3.02 3.02 0 00.02.37 2.44 2.44 0 00.25.72 3.47 3.47 0 01.42 1 1.22 1.22 0 01-.02.66c-.04.1-.1.16-.2.14a.76.76 0 01-.29-.1l-.82-.6a.47.47 0 01-.14-.2.6.6 0 01.05-.44 2.04 2.04 0 00.2-.83.95.95 0 00-.32-.7 2.96 2.96 0 01-.3-.3.38.38 0 01-.08-.45.4.4 0 00-.07-.48l-.44-.47-.73-.73a.43.43 0 00-.44-.1 6.05 6.05 0 00-.57.17 4.68 4.68 0 00-.76.27 8.38 8.38 0 01-1.56.68c-.4.13-.8.23-1.22.33-.24.06-.5.08-.75.12a1.25 1.25 0 00-.46.08 1.68 1.68 0 01-.24.1l1.06 1.52.18-.27.1.5a.33.33 0 00.04-.05.78.78 0 01.39-.33.4.4 0 01.59.34.9.9 0 00.05.24 7.33 7.33 0 00.33.7 4.64 4.64 0 00.38.55.12.12 0 00.18.03.36.36 0 01.5.1 2 2 0 01.34.62 4.7 4.7 0 00.24.56 2.98 2.98 0 00.42.63 1.16 1.16 0 01.32.5.43.43 0 00.26.31c.09.04.1.12.03.18a.6.6 0 01-.26.12 2.05 2.05 0 01-.35 0c.01.18-.04.38.21.45a.63.63 0 01-.51.13l-.04.56a2.75 2.75 0 01-.16.78.65.65 0 01-.3.42l-.02.03-.53.75a1.2 1.2 0 01-.67.46.15.15 0 00-.09.07l-.4.68c-.1.15-.17.3-.4.21-.1-.04-.16.01-.16.08a.28.28 0 00.02.09.56.56 0 00.36.43.91.91 0 00.76-.17 1.3 1.3 0 01.4-.19c.2-.05.35.1.46.26.03.04.05.05.1.04a1.62 1.62 0 01.37-.02.25.25 0 01.24.16.72.72 0 00.2.28.33.33 0 01.07.44 1.14 1.14 0 01-.2.19.4.4 0 00-.29-.5.33.33 0 00-.45.18c.2.02.22.16.2.3a1.08 1.08 0 01-.18.49.7.7 0 01-.28.27l.08-.19c.1-.24 0-.41-.28-.43a.91.91 0 00-.43.1l-.19.1a.59.59 0 01.03.65c-.02-.02-.02-.05-.04-.06a1.6 1.6 0 00-.45-.4 1.77 1.77 0 00-1.2-.12l-.42.08-.37.07a.93.93 0 01-.53-.04.38.38 0 01-.24-.27l-.15.02a1.52 1.52 0 00-.45.1 1.16 1.16 0 01-.41.1h-.55a.21.21 0 00-.22.17l-.02.24h-.03a2.85 2.85 0 01-.1-.36.38.38 0 01.07-.36 1.9 1.9 0 01.28-.18.86.86 0 01.05-.16.46.46 0 01.39-.23c.13-.02.27-.02.42-.03a1.81 1.81 0 00-.06-.3.2.2 0 00-.12-.11c-.1-.02-.16-.06-.18-.17a2.8 2.8 0 01-.01-.33.11.11 0 00-.08-.12.78.78 0 00-.36-.03 1.38 1.38 0 00-.86.4.22.22 0 01-.28.03 1.55 1.55 0 01-.2-.19c-.07-.1-.24-.18-.33-.12a.3.3 0 01-.28-.01c-.13-.06-.26-.13-.4-.18a3.45 3.45 0 00-.92-.11.86.86 0 01-.62-.24 1.9 1.9 0 00-.23-.2.6.6 0 00-.65.07.34.34 0 00-.15.3.66.66 0 00.27.43 2.03 2.03 0 00.65.34c.11.04.24.1.34-.04a.25.25 0 01.13-.08c.17-.05.28-.03.36.14a.17.17 0 00.09.08l.18.06a.5.5 0 01.36.58l-.22-.17a.5.5 0 00-.33-.09c-.1.01-.15.09-.2.16a.13.13 0 01-.17.06c-.11-.06-.13-.04-.16.07a2.35 2.35 0 01.34.07.52.52 0 01.35.33.88.88 0 01-.01.5l-.08.24-.1-.38c-.05-.16-.13-.19-.26-.1-.1.07-.16.16-.3.15l-.17-.01-.53-.12a3.35 3.35 0 00-.33-.12l-.76-.07c-.1-.01-.2-.01-.24.07s.04.16.1.23a.3.3 0 01.1.26l-.12.43h-.02a.31.31 0 00-.13-.24.72.72 0 00-.37-.11.76.76 0 01-.2-.04c-.09-.04-.17-.1-.25-.13a1.02 1.02 0 00-.46-.13.59.59 0 01-.53-.24.45.45 0 00-.3-.18 1.34 1.34 0 01-.13-.03 1.06 1.06 0 00-.75 0 .92.92 0 01-.42.09 22.12 22.12 0 01-.63-.06.45.45 0 00-.46.2l-.1.15h-.02c0-.1 0-.2.02-.28a.64.64 0 01.65-.62c.06-.01.08-.03.1-.08a.46.46 0 01.32-.36 1.33 1.33 0 01.7 0 1.02 1.02 0 00.63-.06c.13-.06.17-.15.1-.3a.69.69 0 00-.32-.32 1.17 1.17 0 01-.28-.2.44.44 0 01-.14-.4 1.69 1.69 0 01.59-.9c.06-.06.15-.12.17-.2a.62.62 0 00-.11-.47.87.87 0 01-.18-.53.32.32 0 00-.24-.33.93.93 0 00-.72.15c.06.28.12.53.15.8a1.97 1.97 0 01-.24 1.16 1.62 1.62 0 01-.79.7 2.44 2.44 0 01-1.07.18 1.8 1.8 0 01-.76-.18 1.89 1.89 0 01-.67-.58 2.42 2.42 0 01-.5-.95 1.92 1.92 0 01-.02-.74l.17-.65A11.96 11.96 0 015 30.54a1.28 1.28 0 00-.19 1.06 1.8 1.8 0 00.52.9 3.48 3.48 0 01.48.6 1.28 1.28 0 01.27.85c-.01.06-.02.1-.08.12a.64.64 0 01-.13.02 2.59 2.59 0 01-1.13-.15.7.7 0 01-.4-.32.76.76 0 010-.63.5.5 0 00.04-.3 3.61 3.61 0 00-.28-1.04 1.78 1.78 0 00-.22-.33c-.09-.11-.2-.2-.28-.31a.41.41 0 01.03-.54l.32-.4a.15.15 0 00-.03-.22 3.98 3.98 0 01-.64-.56 2.44 2.44 0 01-.45-.73 2.28 2.28 0 01-.09-1.23 3.88 3.88 0 01.38-1.1c.2-.36.41-.72.6-1.1a1.8 1.8 0 00.2-.7 3.26 3.26 0 00-.02-.56 2.24 2.24 0 00-.27-.85c-.07-.13-.14-.19-.25-.05l-.07.08a1.32 1.32 0 01-.5.43l-.25.1a1.28 1.28 0 00-.52.57 3.66 3.66 0 00-.35 1.07l-.19 1.2c-.01.1.05.25-.14.26a8.83 8.83 0 01-.5-1.36 4.15 4.15 0 01-.16-1.1 4.94 4.94 0 01.07-.77 2.8 2.8 0 01.36-.92 6.14 6.14 0 00.32-.6.66.66 0 00-.15-.79 2.48 2.48 0 00-.25-.13 2.72 2.72 0 01-.64-.51 1.46 1.46 0 01-.36-.65L0 19.56v-.16l.01-.03a1.3 1.3 0 01.23-.69 1.06 1.06 0 01.91-.53h.33l-.05-.8.03-.03a.75.75 0 01.16.1 1.39 1.39 0 01.17.2 1.57 1.57 0 01.32.9 2.03 2.03 0 01-.02.4l-.15.62c-.12-.17-.22-.32-.33-.45a.67.67 0 00-.48-.2.1.1 0 01.02-.13.42.42 0 00.1-.17c.02-.08-.1-.14-.2-.1a1.13 1.13 0 00-.5.35.6.6 0 00-.15.43.91.91 0 00.19.5c.13.18.28.34.43.5a.88.88 0 00.37.24c.22.07.4.04.48-.22l.19-.54a8.86 8.86 0 01.71-1.6 5.47 5.47 0 011.06-1.35 2.87 2.87 0 01.47-.34 2.23 2.23 0 011.43-.3 3.35 3.35 0 011.06.3 17.52 17.52 0 011.65.93.3.3 0 00.24.05c.3-.06.58-.15.88-.21.25-.06.5-.1.76-.15l.53-.08c.02 0 .05-.04.04-.06l-.01-.25c0-.08-.06-.14-.15-.17a.29.29 0 01-.22-.23c-.02-.13-.02-.26-.03-.4l-.28-.04a1.05 1.05 0 01-.72-.38 3.08 3.08 0 00-.65-.58 3 3 0 00-1.53-.5 4.38 4.38 0 00-1.1.06c-.3.06-.6.1-.89.18l-.88.25c-.11.04-.2 0-.22-.09a.57.57 0 01.01-.16 1.6 1.6 0 01.25-.56c.1-.17.23-.32.35-.48 0-.06 0-.15.02-.23a.6.6 0 01.23-.43 2.6 2.6 0 00.6-.5.83.83 0 00.2-.5.99.99 0 00-.19-.55.72.72 0 01.19-.99 2.62 2.62 0 01.89-.44c.25-.08.5-.14.76-.2a.74.74 0 00.56-.81.3.3 0 00-.3-.3c-.13 0-.27.03-.4.04l-.52.05c-.09.01-.12-.04-.12-.12a.9.9 0 01.03-.23 1.7 1.7 0 01.47-.7c.2-.2.42-.39.63-.58a.14.14 0 00.04-.09 9.44 9.44 0 00-.05-.45.6.6 0 00-.04-.2A2.87 2.87 0 007.58 6a.57.57 0 01-.16-.56.05.05 0 000-.04 1.26 1.26 0 01-.19-.54.43.43 0 00-.05-.2 4.83 4.83 0 00-.4-.38.64.64 0 01-.28-.51 2.62 2.62 0 01.08-.3.29.29 0 00-.01-.15.93.93 0 00-.11-.18l-.98-1.37-.5-.7a.37.37 0 01.1-.47c.05-.03.11-.1.17-.02l.56.68.6.74.45.55a.58.58 0 00.38.28l.32.02c.19 0 .3.1.26.28a.27.27 0 00.08.25 1.41 1.41 0 01.16.23c.06.1.1.23.16.33.05.07.12.16.2.17a.6.6 0 01.51.6 1.11 1.11 0 00.05.3c.1.26.22.52.34.78a.2.2 0 00.2.13.63.63 0 00.36-.13l.9-.67a1.05 1.05 0 01.86-.2 1.48 1.48 0 01.52.24.28.28 0 00.26.03.72.72 0 01.47-.06l.78.14a.27.27 0 00.02-.04 3.93 3.93 0 01.2-.56 1.22 1.22 0 00.1-.4c.03-.26.05-.53.1-.78a2.04 2.04 0 01.57-1.08.88.88 0 00.13-.25l-.02-.02a.72.72 0 00-.1.02l-.37.14a.83.83 0 01-.47.03 1.75 1.75 0 00-.25-.07l-.53-.04a1.6 1.6 0 01-.71-.22.55.55 0 01-.26-.25 2.32 2.32 0 00.83-.08l-.11-.06a2.4 2.4 0 01-.87-.65c-.05-.07-.08-.14-.03-.2a.23.23 0 01.19-.01c.14.03.27.1.42.13a1.5 1.5 0 00.69.05 2.4 2.4 0 00.72-.3c.23-.14.47-.27.71-.38s.49-.18.74-.27h.05a.16.16 0 00.05.02.62.62 0 01.35.15.94.94 0 00.87.18.16.16 0 01.18.04.5.5 0 01.08.15 1.21 1.21 0 01.04.64c-.05.29-.12.56-.45.68a.17.17 0 00-.04.27l.08.11a2.38 2.38 0 01.37 1.21v.52c0 .05.03.12-.06.13 0 0-.02.03-.01.04l.02.16.05.42h-.09a.11.11 0 000 .03c0 .3 0 .6.02.9 0 .02.02.06.04.06a.17.17 0 00.1-.01 5.36 5.36 0 01.88-.54 1.78 1.78 0 01.62-.17 1 1 0 01.68.2.28.28 0 00.26.04 6.03 6.03 0 011.24-.14l.45-.02-.2-.3c-.07-.1-.14-.14-.2-.21a.2.2 0 01-.03-.15c0-.03.08-.05.13-.05a2.51 2.51 0 01.28.04l.7.12a.3.3 0 00.1-.02.44.44 0 00-.03-.1l-.1-.18a.11.11 0 01.02-.1.1.1 0 01.09-.01 1.31 1.31 0 01.23.1 3.54 3.54 0 01.75.62.38.38 0 00.42.12 1.93 1.93 0 01.86-.09.72.72 0 01.55.35l.22.44.2.33-.31-.05.02.08-.13.07.04.04a1.03 1.03 0 01.33.8.33.33 0 00.06.16c.25.39.5.77.77 1.15.13.2.3.36.44.54a1.4 1.4 0 00.53.47c.28.11.29.4.28.61l-.01.3c0 .1.02.2.01.3a.4.4 0 01-.32.39.23.23 0 01-.26-.07 1.41 1.41 0 00-.28-.22 1.18 1.18 0 00-.19-.09v.03l.27.24c.05.04.1.1.08.17a.23.23 0 01-.17.14.53.53 0 01-.35-.06 1.99 1.99 0 01-.61-.45.8.8 0 00-.11-.1 1.91 1.91 0 00-.64-.27c-.28-.07-.56-.12-.83-.17l-.4-.04c.05.18.08.36.14.52l.59 1.58.72 1.88a.32.32 0 00.06.1l.3.32c.2.22.4.44.58.66a4.9 4.9 0 01.78 1.3 3.07 3.07 0 01.22.86 1.8 1.8 0 00.06.33.23.23 0 00.38.14l.8-.56a.8.8 0 00.3-.3 1.07 1.07 0 01.4-.43.5.5 0 01.7.1.89.89 0 01.18.53.36.36 0 00.07.23c.13.18.24.37.38.55a26.11 26.11 0 00.92 1.1l.51.5a.96.96 0 01.28.44 1.7 1.7 0 01.01.5c0 .07-.03.14-.03.22a2.98 2.98 0 00.02.51 5.7 5.7 0 00.16.57l.11.45zm-8.5 5a.28.28 0 00-.15-.32.1.1 0 01-.06-.06l-.02-.23c-.17-.06-.2-.13-.12-.28l-.84-.64.33-.12-.23-.29c-.3-.4-.6-.82-.92-1.22a.5.5 0 00-.2-.15.5.5 0 00-.41.04l-.47.23-.85.35a12.11 12.11 0 01-1.56.46c-.25.06-.51.12-.77.16-.24.05-.48.08-.73.12l-.72.1-.67.12-.7.1a.15.15 0 00-.09.05l-.52.66a11.67 11.67 0 01-.92.98l-.45.37a.74.74 0 00-.16.95 2.25 2.25 0 00.52.64.4.4 0 00.41.1 1.31 1.31 0 01.24-.1l.9-.07.3-.02-.02-.2a1.26 1.26 0 00-.33-.72 2.17 2.17 0 00-.84-.57.56.56 0 01-.25-.17c-.05-.07-.04-.12.04-.13a.77.77 0 01.25.02c.3.06.58.15.88.21.42.09.85.17 1.28.23.32.05.64.04.96.07a.54.54 0 00.4-.15.17.17 0 000-.3l-.21-.12a1.3 1.3 0 00-.24-1.7 2.29 2.29 0 01.4.06 3.12 3.12 0 01.77.36l.83.53a2.87 2.87 0 00.86.47.76.76 0 00.68-.07.64.64 0 01.22-.1 3.43 3.43 0 01.41-.07 2.37 2.37 0 01.9.02.9.9 0 01.63.46 1.58 1.58 0 01.07.95c-.03.15-.07.3-.08.46l-.08.9c-.04.35-.1.7-.12 1.05a1.62 1.62 0 00.11.8.7.7 0 00.6.44 1.69 1.69 0 00.81-.17 2.31 2.31 0 00.96-.77l.3-.47c-.24-.05-.3-.22-.35-.4a7.65 7.65 0 00-.2-.61 4.95 4.95 0 00-.23-.46.78.78 0 00-.12-.19 1.11 1.11 0 01-.3-.54.94.94 0 00-.16-.37 11.3 11.3 0 01-.4-.61.87.87 0 01-.09-.22c-.02-.1.02-.15.12-.13a.6.6 0 01.2.1l.2.18zM7.78 18.22l-.37-.06a2.07 2.07 0 00-.9.02 2.37 2.37 0 00-1.3.9 4.74 4.74 0 00-.6 1 10.4 10.4 0 00-.56 1.57.18.18 0 00.04.19 4.34 4.34 0 01.74 1.19 3.32 3.32 0 01.28 1.31 5.9 5.9 0 01-.08.75 4.2 4.2 0 01-.37 1.17c-.1.2-.2.4-.28.61a1.87 1.87 0 00-.14.98.8.8 0 00.4.54c.03-.12.08-.23.1-.34a8.41 8.41 0 00.2-.88 1.05 1.05 0 01.48-.8 4.18 4.18 0 00.85-.68 1.61 1.61 0 00.42-.98 4.38 4.38 0 000-.57c0-.25-.04-.5-.05-.75a27.72 27.72 0 01-.04-.86l.02-.4.04-.75.07-.62a5.72 5.72 0 01.33-1.31 3.9 3.9 0 01.54-1l.18-.23zm3.56 10.72c0-.05.02-.1 0-.14a.93.93 0 00-.18-.29 3.58 3.58 0 00-.5-.33.6.6 0 01-.24-.91 8.57 8.57 0 01.6-.71 1.53 1.53 0 00.34-.7.45.45 0 000-.13.4.4 0 00-.15.02c-.1.05-.2.13-.31.18-.46.21-.92.43-1.39.63-.33.15-.68.28-1.02.42a8.78 8.78 0 01-1.19.3 2.15 2.15 0 00-.96.48 2.12 2.12 0 00-.57.82l-.11.34a1.4 1.4 0 01.63.3c.02.02.05 0 .08 0a4.23 4.23 0 01.5 0 .4.4 0 01.33.26 1.31 1.31 0 01.96.03.18.18 0 00.2-.01 1.51 1.51 0 01.26-.1 1.64 1.64 0 01.99-.1l.06-.03c.12-.08.23-.17.35-.23a1.75 1.75 0 011.32-.1zm2.25 5.55a.25.25 0 000-.39.57.57 0 01-.2-.37.31.31 0 00-.11.5l.3.27zm8.72-.03l-.18.15a.14.14 0 00-.01.2.54.54 0 00.37.22c.06 0 .13-.06.2-.1v-.04c-.04-.05-.07-.1-.11-.13a28.77 28.77 0 01-.27-.3zM9.2 32.14a.29.29 0 00-.16-.22.07.07 0 00-.06 0 1.69 1.69 0 00-.2.25c-.04.07.07.25.16.25a.36.36 0 00.25-.28z"/></symbol><symbol id="nvsbk" viewBox="0 0 18 37"><path d="M2.52 36.35a3.57 3.57 0 01-.6-1.44.34.34 0 010-.1l.02-2.69a1.22 1.22 0 01.63-1.06l.74-.46A1.61 1.61 0 004 29.37a4.43 4.43 0 00-.13-1.4 3.56 3.56 0 01.23-2.13 2.15 2.15 0 00.15-.78c.01-.63.03-1.27.1-1.9a4.35 4.35 0 01.58-1.77l1.1-1.92a26.61 26.61 0 001.56-3.07 9 9 0 00.64-2.46 6.7 6.7 0 00-.1-2.04 7.36 7.36 0 00-.85-2.03A15.96 15.96 0 004.4 6.25a4.58 4.58 0 01-1.27-2.2 2.62 2.62 0 01.58-2.5 5.6 5.6 0 01.57-.5l.06.74a.1.1 0 00.06.07V1.2a1.6 1.6 0 01.24-.8.74.74 0 011.18-.17 2.9 2.9 0 01.36.48.61.61 0 01.05.1 5.3 5.3 0 01.24-.54.28.28 0 01.22-.12c.06 0 .14.1.16.18.05.15.08.32.12.48a.32.32 0 00.23.24 8.41 8.41 0 012.29 1.28.27.27 0 01.06.18l.04.47h.06l.14-.13a.59.59 0 01.08.19c0 .4-.13.68-.61.68-.23 0-.46-.04-.69-.05h-.22v.05c.36.03.73.08 1.1.1a.56.56 0 00.3-.11c.3-.2.4-.19.68.03a.52.52 0 00.32.06 1.8 1.8 0 00.34-.08.62.62 0 01-.23.49.47.47 0 01-.5.01.44.44 0 01-.11-.07.46.46 0 00-.63-.05.33.33 0 01-.45 0 .73.73 0 00-.22-.1c-.04.32-.1.38-.4.39H7.37c-.19 0-.37 0-.47.2a.5.5 0 00.11.59 1.88 1.88 0 00.5.32 14.47 14.47 0 012.96 1.67 17.22 17.22 0 011.99 1.76.7.7 0 00.26.16 4.13 4.13 0 001.45.25 1.68 1.68 0 001.75-1.61 9.09 9.09 0 000-1 .68.68 0 00-.1-.3 1.4 1.4 0 01-.1-1.34 1.05 1.05 0 01.73-.6c.12.2.13.2.33.1a.56.56 0 01.18 0c-.08.06-.15.09-.18.14a.2.2 0 000 .16c.07.13.13.11.36-.07l.08.17c-.12.07-.22.13-.31.2a.28.28 0 00.08.14c.14.1.17-.1.3-.12a10.08 10.08 0 01.03 1.1c-.06.74-.19 1.47-.23 2.2a4.1 4.1 0 01-1.6 2.87c-.32.28-.68.54-1.05.83a8.87 8.87 0 00-1.23-2.4l-.01.03a14.85 14.85 0 011.37 3.02 3.08 3.08 0 00.25.57.4.4 0 00.7.07 2.36 2.36 0 00.36-.61 4 4 0 01.56-1.09 1.2 1.2 0 011.22-.37c-.15.26-.1.31.28.31l.03.14c-.15.01-.34.01-.27.23.02.06.16.08.25.12l.03-.03v.12c-.05 0-.1-.03-.13-.01a.46.46 0 00-.16.18c0 .03.08.1.14.15s.2-.02.14.15a.5.5 0 01-.05 0c-.12 0-.24 0-.24.17s.16.12.26.14a.56.56 0 01-.47.63 2.31 2.31 0 00-.67.2.7.7 0 00-.37.46c-.14.38-.26.77-.39 1.16a2.09 2.09 0 01-.15.33.78.78 0 01-1 .4 1.94 1.94 0 01-.92-.57c-.4-.46-.8-.95-1.19-1.42a.98.98 0 00-.12-.14 2.6 2.6 0 00.71 1.24.17.17 0 01.07.21 9.33 9.33 0 01-1.4 3.2c-.37.5-.77.97-1.13 1.48a17.68 17.68 0 00-1.5 2.37 6.13 6.13 0 00-.57 2.2 12.13 12.13 0 00.12 2.2 5.18 5.18 0 01-.55 3.2 2.8 2.8 0 01-2.2 1.41l-1.67.2-.2.03c-.69.1-.93.6-1.05 1.2a3.85 3.85 0 000 1.47.5.5 0 00.48.4c.32 0 .64-.02.95 0a1.33 1.33 0 01.93.39 1.34 1.34 0 01.21.36c.05.11.08.23-.11.27-.05.01-.1.12-.1.18 0 .1-.03.13-.13.13-.14 0-.29-.01-.27.2l-.12.04-.02-.03a.25.25 0 00-.32 0c-.06.04-.07.14-.11.24 0 0-.06 0-.08-.04a.24.24 0 00-.28-.1c-.12.03-.11.12-.1.22 0 .02-.04.08-.07.08a3 3 0 01-.58.08c-.38 0-.67-.15-1.05-.64zM7.35 1.77a.23.23 0 00-.2.35.49.49 0 00.2.23 4.96 4.96 0 00.54.2c.1-.05.23-.08.25-.14a.42.42 0 00-.05-.33.83.83 0 00-.68-.3zM5.15.8a.72.72 0 00.03.92c.08-.27.06-.62.54-.56a1.64 1.64 0 00-.1-.29.31.31 0 00-.26-.17.28.28 0 00-.2.1zm9.13 34.13a3.8 3.8 0 01-1.01-1.25l-.85-1.46c-.15-.24-.35-.44-.52-.66a.28.28 0 01-.05-.19l.2-1a1.12 1.12 0 00-.15-.82 2.44 2.44 0 00-.83-.83 12 12 0 01-1.08-.71 2.27 2.27 0 01-.87-1.72 20.27 20.27 0 01-.04-1.26 5.9 5.9 0 011.02-3.33 6.66 6.66 0 01.5-.67c-.04.21-.1.42-.11.63a2.86 2.86 0 000 .65c.07.47.42.67.83.85a5.1 5.1 0 012.52 2.03 3.52 3.52 0 01.43 1.7 11.77 11.77 0 01-.36 2.86c-.08.36-.17.7-.27 1.05a1.31 1.31 0 00.1.83 3.93 3.93 0 001.16 1.55.24.24 0 00.14.04l1.09.04a3.38 3.38 0 01.64.1.9.9 0 01.65.63c.03.12.09.25-.1.32a.22.22 0 00-.1.3 1.02 1.02 0 01.03.17l-.05.01a.2.2 0 00-.28-.06c-.12.06-.12.1-.05.38l-.13.07a.2.2 0 00-.29-.17c-.17.05-.15.18-.12.32l-.13.02c-.08-.21-.17-.3-.3-.25-.2.06-.1.22-.1.35a1.63 1.63 0 01-.23.01 2.2 2.2 0 01-1.29-.53zM1.1 25.58a2.42 2.42 0 01-.8-1.3 9.13 9.13 0 01-.3-2.6 20.18 20.18 0 01.29-3.1c.2-1.27.44-2.55.65-3.82a9.88 9.88 0 00.16-2.74c-.08-.7-.2-1.4-.29-2.11C.75 9.37.67 8.84.64 8.3a1.73 1.73 0 01.45-1.23.86.86 0 01.88-.34 1.08 1.08 0 01.58.45 1.84 1.84 0 01.2.35 3.77 3.77 0 00.72 1 8.43 8.43 0 011.85 3.1 6.41 6.41 0 01.4 2.77 8.03 8.03 0 01-.7 2.52 17.06 17.06 0 01-1.51 2.55 11.13 11.13 0 00-1.19 2.25 2.97 2.97 0 00-.15 1.43.75.75 0 001.2.56 3.01 3.01 0 00.54-.48l.28-.29.04.02c-.05.61-.08 1.22-.15 1.83a1.1 1.1 0 01-.52.8 2.32 2.32 0 01-1.26.32 1.96 1.96 0 01-1.2-.34zM7.5 2.12a.2.2 0 01.23-.18.2.2 0 01.2.2.22.22 0 01-.2.2.21.21 0 01-.22-.22z"/></symbol><symbol id="spb" viewBox="0 0 29 37"><path d="M29 13.8l-.07.28-.1.35a3.04 3.04 0 01-.1.32 2.81 2.81 0 01-.16.3c-.1.18-.21.35-.32.5a3.93 3.93 0 01-.27.36c-.22.26-.43.51-.66.75-.2.2-.43.37-.64.55a.23.23 0 00-.05.05.8.8 0 00-.04.09.35.35 0 00.1.03h.4A7.3 7.3 0 0124 18.85l.04-.05c.28-.32.58-.64.85-.98.23-.3.43-.62.63-.93.08-.12.14-.25.21-.37.01-.02.04-.03.05-.03a.1.1 0 01.04.05l.07.35c.02.1.09.05.13.02a4.67 4.67 0 00.45-.38c.26-.26.51-.53.75-.82a4.5 4.5 0 00.37-.58 3.77 3.77 0 00.25-.47c.07-.17.1-.35.17-.52a1.53 1.53 0 00.06-.6 1.02 1.02 0 00-.2-.62c-.05-.07-.1-.06-.14 0a.49.49 0 00-.05.16 1.51 1.51 0 01-.35.78 7.1 7.1 0 01-.75.89c-.27.26-.58.49-.87.73a.36.36 0 00-.05.07.34.34 0 00.07.04l.35.1a.08.08 0 01-.03.05c-.2.12-.4.25-.62.36a4.4 4.4 0 01-.51.26c-.17.06-.34.1-.52.15l-.24.07-.38.11a.34.34 0 01-.04 0l-.5.1-.32.05-.13.02a10.29 10.29 0 002.11-2.22l.1.36a.11.11 0 00.19.07 4.3 4.3 0 001.07-1.12 4.39 4.39 0 00.3-.57 3.56 3.56 0 00.2-.46 1.4 1.4 0 00.03-.3.42.42 0 010-.06c.04-.14-.02-.24-.16-.24a4.93 4.93 0 00-1.28.07c-.25-.05-.33.18-.47.3-.24.19-.45.4-.67.6l-.52.44-.64.51-.8.65-.88.74-.64.56-.72.61-.84.74c-.22.2-.45.37-.67.56l-.45.4c-.24.2-.5.41-.74.63l-.68.6-.9.77a9.09 9.09 0 00-.48.43.15.15 0 00.02.14l.69.66.86.8.36.34 1.15 1.08.96.9.85.78.55.5.95.9.96.9c.08.08.14.08.23 0 .1-.11.23-.22.33-.34a.27.27 0 01.34 0l.36.35a.17.17 0 00.26.01l.58-.46.66-.47.6-.37a.36.36 0 00.1-.07c.1-.11.15-.04.2.02l.57.57v.03l-.66.47c-.24.17-.48.34-.7.52-.26.2-.52.42-.78.64-.18.15-.36.3-.53.47a.17.17 0 000 .16 2.14 2.14 0 00.32.32.23.23 0 00.19.03 3.1 3.1 0 01.4-.18 1.53 1.53 0 01.82-.05c.14.05.29.06.43.1a.97.97 0 01.2.08 2.2 2.2 0 01.82.69 2.28 2.28 0 01.3.63 2.82 2.82 0 01.05.7 1.34 1.34 0 01-.11.49 1.63 1.63 0 01-.37.61 3.38 3.38 0 01-.46.4 1.84 1.84 0 01-.29.14 3.01 3.01 0 01-.43.14 1.53 1.53 0 01-.6.05 2.24 2.24 0 01-.5-.12 1.78 1.78 0 01-.38-.15 2.07 2.07 0 01-.4-.3 2.86 2.86 0 01-.38-.46 2.56 2.56 0 01-.18-.42 1.4 1.4 0 01-.1-.65 4.06 4.06 0 01.1-.43 1.42 1.42 0 01.21-.48.13.13 0 00-.03-.19l-.32-.29c-.06-.06-.12-.01-.16.03l-.7.76L21.7 32l-.53.73-.18.23-.7-.65.2-.28.22-.35q.4-.57.82-1.12l.2-.24c.08-.11.07-.17-.04-.26a2.2 2.2 0 01-.33-.34.26.26 0 010-.24 6.25 6.25 0 01.47-.52c.06-.06.06-.1 0-.17l-1.04-.98-.71-.68-1-.92-.45-.44-1.12-1.07-1.3-1.22-1.07-1-.33-.3a.12.12 0 00-.1-.03c-.02.01-.04.07-.03.1 0 .37 0 .74.05 1.1.04.34.03.68.07 1.02s.03.68.07 1.02c.04.38.02.76.06 1.14a17.68 17.68 0 01.06 2.24 1.09 1.09 0 01-.3.87c-.03.02-.04.06-.03.07a.1.1 0 00.07.04 1.45 1.45 0 00.16 0l-.1.52c-.01.06-.05.13-.06.2a.8.8 0 00.1.48.85.85 0 01.1.55.55.55 0 01-.2.26c-.07.06-.1.1-.01.17a.55.55 0 01.21.47.65.65 0 01-.35.47.08.08 0 00-.05.13 1.6 1.6 0 01.2.58c.02.13.08.25.1.38l.1.54.1.63a.79.79 0 01-.08.5.63.63 0 01-.33.34.1.1 0 000 .1.68.68 0 01.21.3.25.25 0 01.02.18.63.63 0 01-.25.35l-.18.1h-.23a8.82 8.82 0 01-.3-.2.37.37 0 01-.12-.34.48.48 0 01.18-.36c.06-.05.08-.08 0-.14a.67.67 0 01-.36-.58v-.41l.09-.63c.03-.19.08-.37.12-.55a3.9 3.9 0 01.09-.4c.05-.14.12-.27.18-.41a.1.1 0 00-.03-.1.59.59 0 01-.35-.45.35.35 0 010-.17.69.69 0 01.2-.33c.07-.05.06-.13 0-.16a.36.36 0 01-.22-.35 1.18 1.18 0 01.06-.3 1.54 1.54 0 01.1-.34.48.48 0 00.03-.35 4 4 0 01-.13-.56c-.01-.1 0-.12.09-.12a.4.4 0 00.12-.03.55.55 0 00-.07-.11.7.7 0 01-.2-.46l-.02-.17a3.06 3.06 0 01-.02-.32c0-.08.04-.17.04-.26 0-.51 0-1.02.06-1.52.04-.39.03-.77.07-1.16s.04-.75.07-1.13c.03-.47.02-.95.07-1.43a8.3 8.3 0 000-.9.44.44 0 00-.03-.1.46.46 0 00-.13.05l-.62.55c-.26.22-.52.43-.77.66l-.8.7-.8.7-.6.53-.75.66-.93.83-.5.45-.84.72-.4.38-.94.8c-.34.3-.67.6-1.02.88-.04.05-.14.04-.2.05a.49.49 0 00-.15.05c-.06.03-.1.09-.16.13a.18.18 0 00-.06.25l.07.18a1.29 1.29 0 01.13.6v.47a1.3 1.3 0 01-.07.35 2.64 2.64 0 01-.2.38 1.93 1.93 0 01-.47.55 1.94 1.94 0 01-.8.42 4.9 4.9 0 01-.61.12 1.78 1.78 0 01-.46-.06 2.2 2.2 0 01-.37-.1 3.35 3.35 0 01-.35-.17 1.87 1.87 0 01-.7-.62 2.63 2.63 0 01-.22-.42 3.18 3.18 0 01-.12-.38L0 31.59v-.27l.07-.3a2.71 2.71 0 01.09-.29 2.05 2.05 0 01.53-.78 2.69 2.69 0 01.62-.41 2.34 2.34 0 011.22-.2 1.76 1.76 0 01.4.12l.22.08a.84.84 0 01.23.09c.09.07.14.02.2-.03l.25-.2a.08.08 0 00.03-.05c-.03-.2.12-.3.24-.41l.68-.58.8-.68.58-.5.63-.54.73-.64.81-.7.72-.62.8-.7.64-.53.81-.7.72-.62.68-.57.66-.56c.09-.08.08-.12-.01-.2l-1.09-1.03-1-.92-.34-.32c-.4-.4-.81-.79-1.22-1.17L8.57 16.3l-.68-.63-.81-.79-1.25-1.17-1.3-1.23-1.2-1.12-.5-.46c-.08-.08-.15-.07-.2.03l-.19.38a2.14 2.14 0 00-.08.28l-.11.42a.4.4 0 00-.03.09 7.16 7.16 0 00-.01.85 1.96 1.96 0 00.07.67 3.7 3.7 0 01.09.4c.05.16.12.31.18.47l.16.36a1.44 1.44 0 00.15.24l.5.6a.55.55 0 00.11.1c.09.06.14.04.18-.07a1.83 1.83 0 01.1-.2l.06-.11c.04.07.1.15.13.23l.2.38.3.56c.05.09.13.16.18.25a3.64 3.64 0 00.55.63v.1l-.32-.12-.6-.25-.43-.18-.24-.1-.3-.11-.44-.16a.83.83 0 01-.1-.06l.29-.18c.09-.06.09-.12.01-.19-.22-.2-.43-.41-.63-.64a6.65 6.65 0 01-.42-.54 5.28 5.28 0 01-.3-.45c-.07-.11-.12-.23-.18-.35a2.84 2.84 0 01-.08-.17c-.06-.16-.13-.32-.18-.5a3.3 3.3 0 01-.08-.43 2.66 2.66 0 01-.05-.39c0-.27.02-.53.03-.8l.02-.14c0-.12 0-.25.02-.37a8.4 8.4 0 00.1-1.76 3.31 3.31 0 00-.11-.56 1.8 1.8 0 00-.08-.26L.86 8.3a1.94 1.94 0 00-.12-.2l.39.15.32.12.36.11a.3.3 0 00.06.02 8.42 8.42 0 00.9.07c.33-.01.64-.08.96-.12h.02l.64-.08.44-.05a2.84 2.84 0 011.03.04c.16.05.34.04.5.08a2.27 2.27 0 01.32.11l.23.09.41.19a7.92 7.92 0 01.71.41c.24.17.46.36.7.54.08.07.16.15.26.22.06.05.11 0 .14-.06l.09-.27a.27.27 0 01.03-.04 7.86 7.86 0 011.25 2.56 5.24 5.24 0 00-2.44-1.34l.28-.15a2.54 2.54 0 00.25-.14c.05-.03.04-.07-.02-.11-.18-.13-.35-.27-.54-.39a2.58 2.58 0 00-.37-.16l-.17-.07a3.13 3.13 0 00-.3-.12 2.34 2.34 0 00-.36-.08c-.25-.04-.5-.08-.76-.09s-.5 0-.73.01h-.06c-.24.03-.48.04-.72.08a2.16 2.16 0 00-.37.1c-.15.06-.3.1-.44.17a1.36 1.36 0 00-.2.08c-.07.04-.05.1 0 .15l.86.79.5.48.85.8.35.32 1.02.97.86.78.34.33 1.02.96q.54.52 1.1 1.03l.86.78.38.37 1.19 1.1.87.83a.75.75 0 00.08.05c.06.05.1.03.1-.04a3.8 3.8 0 000-.43.2.2 0 00-.1-.13.4.4 0 01-.13-.39.5.5 0 01.24-.4c.07-.05.05-.12 0-.17a.7.7 0 01-.28-.6v-1.1a.35.35 0 00-.26-.37.47.47 0 01-.07-.02.56.56 0 01-.08-.07h.38c.03 0 .08-.02.08-.04l-.02-.1c-.03-.1-.08-.2-.1-.32l-.05-.32a8.14 8.14 0 01.05-1.02 2.27 2.27 0 01.05-.4l.02-.32.04-.35.03-.23.09-1.29v-1.08l-.03-.4a2.15 2.15 0 00-.06-.57 5.5 5.5 0 01-.08-.57c-.02-.13-.06-.25-.1-.37l-.07-.3a2.38 2.38 0 00.25 0 .73.73 0 00.15-.05.92.92 0 00-.06-.13.8.8 0 01-.1-.78 2.22 2.22 0 00.08-.29.23.23 0 01.03-.08.17.17 0 00.02-.22.21.21 0 00-.25-.09.15.15 0 01-.2-.04c-.06-.1-.12-.1-.21-.02a.9.9 0 01-.09-.21.56.56 0 01.04-.18c.01-.03.03-.08.02-.1-.06-.12-.04-.16.09-.21.03.12.1.11.18.07a2.78 2.78 0 00.3-.17c.05-.03.07-.1.1-.15a.63.63 0 01.1-.13.26.26 0 00.06-.35c-.04-.06-.26-.14-.32-.09a.3.3 0 00-.09.2c0 .08.03.1.16.13-.01.02-.02.05-.04.05-.1.02-.1.09-.1.17 0 .02-.06.05-.09.06-.14.02-.29.02-.42.05a.88.88 0 00-.22.1.76.76 0 00-.07.06c-.1.06-.23.1-.1.25.02.03 0 .1 0 .15a.22.22 0 01-.23-.13.53.53 0 00-.12-.13l-.24-.24a.26.26 0 00.03-.36 1.06 1.06 0 01-.08-.3 2.97 2.97 0 00-.1-.24 3.66 3.66 0 00-.18-.46.9.9 0 00-.36-.47 1.01 1.01 0 01-.18-.16l.2-.3a.15.15 0 00-.05-.08l-.09-.03c-.07-.05-.12-.1 0-.16a.17.17 0 00.08-.1c0-.02-.07-.04-.09-.07-.05-.07-.16-.1-.13-.2l.2-.05-.13-.16-.12-.2.14-.02c.1 0 .1-.03.06-.11l-.1-.19c-.05-.07 0-.08.05-.09.11-.02.12-.08.07-.18a.84.84 0 01-.03-.28.17.17 0 01.08-.02c.02 0 .05.03.06.05.03.04.06.1.1.04a.17.17 0 000-.15.51.51 0 01.03-.48.09.09 0 01.08 0c.08.14.14.3.22.43a3.73 3.73 0 00.22.34c.02.03.07.03.1.05l.16.23c.05.06.09.15.2.09l.57.64-.16.26a.2.2 0 00.17.27.69.69 0 00.13 0c.04 0 .1-.02.1-.04a.17.17 0 00-.03-.12c-.04-.07-.12-.13-.04-.2l.25.01A.06.06 0 0013.6 3a.1.1 0 00-.03-.07 1.01 1.01 0 00-.1-.08c.06-.02.14-.02.17-.06a.38.38 0 00.1-.2.64.64 0 00-.17-.47.05.05 0 00-.02-.02.46.46 0 00-.51.13c0-.11-.05-.12-.13-.08a.2.2 0 01-.28-.1l.18.02a.07.07 0 00.06-.04.08.08 0 00-.03-.06.17.17 0 010-.32c.03-.03.07-.04.1-.05l.1-.06-.07-.08h.07c.06 0 .08-.04.04-.1-.1-.15-.06-.26.12-.31a.11.11 0 00.06-.08l-.02-.1a.12.12 0 01.04-.09.1.1 0 01.1 0 .1.1 0 01.02.09c-.03.1-.05.17.1.18.1 0 .15.17.09.28a.45.45 0 00-.03.1.41.41 0 00.12-.01 2.08 2.08 0 00.2-.11.29.29 0 00.08-.39.53.53 0 01-.09-.23.24.24 0 01.1-.18.64.64 0 01.23-.08c.06-.02.09-.03.07-.1A1.99 1.99 0 0114.2.1l.08-.1h.05l.08.1a2 2 0 01-.05.22c-.02.07 0 .08.07.1a.6.6 0 01.23.08.27.27 0 01.1.19.45.45 0 01-.08.2c-.1.2-.08.33.11.43a1.45 1.45 0 00.16.1.44.44 0 00.12 0 .34.34 0 00-.02-.11c-.06-.1-.03-.26.08-.27.13-.01.13-.07.1-.17s.04-.15.11-.1c.03 0 .04.08.04.12s-.04.13.05.14a.18.18 0 01.12.31c-.05.06-.02.1.05.1a.92.92 0 00.1 0 .37.37 0 00-.05.03c-.02.02-.05.04-.05.06a.08.08 0 00.04.05l.18.08a.21.21 0 01.02.29.79.79 0 00-.08.08.67.67 0 00.13.03.38.38 0 00.11-.02.2.2 0 01-.26.1c-.1-.05-.14-.03-.15.07a.44.44 0 00-.5-.12.07.07 0 00-.03.02.63.63 0 00-.17.46c0 .07 0 .16.09.2l.18.07a1.28 1.28 0 00-.1.08c-.02.01-.03.04-.03.06a.08.08 0 00.05.04h.25c.08.06 0 .12-.04.2a.21.21 0 00-.02.12c0 .01.06.03.1.03a.65.65 0 00.11 0c.11 0 .22-.1.19-.2a2 2 0 00-.16-.34l.57-.63c.06.05.1.03.14-.03a2.66 2.66 0 01.23-.29 1.35 1.35 0 00.1-.1 7.6 7.6 0 00.4-.65l.06-.1c.04.03.1.06.1.1a.8.8 0 01-.03.42c-.02.03 0 .09 0 .13a.72.72 0 00.1-.03c.02 0 .04-.04.06-.04a.19.19 0 01.08 0 1.18 1.18 0 01-.04.3c-.03.08-.03.16.04.18.1.02.12.12.06.2a1.03 1.03 0 00-.1.15l.17.04.04.03a1.19 1.19 0 01-.08.15l-.11.11c-.02.02-.04.06-.03.08s.04.03.07.04a.83.83 0 00.12 0l.03.03a1.18 1.18 0 01-.16.18c-.1.08-.11.09 0 .18a.74.74 0 01.07.09.5.5 0 01-.12.09c-.12.03-.13.08-.05.18a.49.49 0 01.05.08c-.2.03-.26.1-.2.22.04.1.02.14-.08.14-.13-.01-.16.04-.15.15s-.05.15-.13.12a.13.13 0 00-.2.08c-.03.1-.08.08-.16.07a.22.22 0 00-.18.04c-.11.12-.18.1-.25-.04a.1.1 0 00-.09-.04c-.03.01-.06.06-.1.06a.29.29 0 01-.15 0 .15.15 0 01-.07-.18.18.18 0 00-.14-.23c-.06-.02-.1-.02-.1.06v.4c0 .1.05.12.13.15a1.21 1.21 0 01.28.13.22.22 0 01.06.15v.21a.18.18 0 00.05.08.66.66 0 00.06.06.26.26 0 01-.09.03c-.1 0-.18 0-.16.1l-.15.07c.02.03.04.08.07.1.06.03.14.02.18.06.1.1.2.06.3.06a.13.13 0 00.1-.05.24.24 0 000-.13c-.01-.03-.04-.07-.03-.1a.92.92 0 01.1-.23c.03-.05.09-.07.13-.11s.17-.08.08-.2c0-.02.02-.09.05-.11a.17.17 0 01.13 0 .6.6 0 01.12.07c-.12.1-.08.17 0 .2a.57.57 0 01.23.29.2.2 0 010 .17.98.98 0 01-.21.28 1.19 1.19 0 01-.3.15 1.07 1.07 0 01-.17.05.48.48 0 01-.15-.06c-.17-.15-.4-.11-.6-.19a2 2 0 00-.4-.06l.02-.03c0-.06 0-.13-.03-.17s-.11-.05-.17-.07c.13-.05.16-.09.15-.21s-.03-.14-.17-.15-.16-.01-.26.2a.2.2 0 00.1.26.44.44 0 01.1.13c.03.04.05.1.1.12a2.73 2.73 0 00.27.17c.13.07.16.06.2-.07.12.04.15.12.1.21a.21.21 0 00.02.12.6.6 0 01.03.18.9.9 0 01-.08.2c-.08-.07-.15-.09-.21.02-.03.04-.13.09-.16.07-.15-.09-.23.03-.33.1s-.07.1-.02.16a.95.95 0 01.1.22 1.58 1.58 0 01.08.58.77.77 0 01-.16.41.4.4 0 00-.03.1.66.66 0 00.12.03h.21c.07 0 .08.03.05.1a2.36 2.36 0 00-.12.4l-.1.75a3.18 3.18 0 00-.04.38 21.47 21.47 0 00.06 2.48c.03.22.04.46.05.69.03.38.08.77.1 1.16v1.25a1.48 1.48 0 01-.12.36c-.01.03-.03.07-.02.08a.12.12 0 00.09.04h.39l-.16.1a1.87 1.87 0 00-.22.1.21.21 0 00-.1.2v.56a6.67 6.67 0 01-.01.68.67.67 0 01-.26.52.12.12 0 000 .18.52.52 0 01.21.28.48.48 0 01-.16.58.14.14 0 00-.05.09v.47c0 .07.03.1.1.05l.23-.2 1.04-.89.85-.73.74-.64.5-.44c.24-.2.48-.39.7-.59l.66-.58c.29-.24.58-.47.86-.72.37-.3.72-.63 1.09-.94l1.25-1.04 1.24-1.03a1.3 1.3 0 00.43-.77 2.3 2.3 0 00.03-.49l-.02-.55c0-.07-.04-.09-.1-.08a5.75 5.75 0 00-.61.07 3.57 3.57 0 00-.5.18l-.2.09c-.14.06-.27.11-.4.18l-.52.3c-.16.1-.3.23-.45.34-.06.05-.06.09.02.12l.27.13.13.05-.12.05c-.2.1-.4.18-.58.28a12.14 12.14 0 00-.68.4 5.13 5.13 0 00-.56.42c-.18.16-.34.35-.52.52l-.02-.01.1-.33.1-.34a2.7 2.7 0 01.08-.3c.08-.2.17-.39.26-.57a3.8 3.8 0 01.33-.57c.23-.3.48-.58.73-.87a3.27 3.27 0 01-.02.39.3.3 0 00.04.1.4.4 0 00.1-.04l.16-.14a30 30 0 01.66-.42 2.26 2.26 0 01.25-.13l.57-.25.3-.1.33-.09.54-.12c.04 0 .1-.02.1-.04a.15.15 0 00-.03-.12c-.08-.07-.17-.12-.25-.18a1.28 1.28 0 00-.7-.24 2.98 2.98 0 00-1.33.12 2.37 2.37 0 01-.26.07 2.71 2.71 0 00-.3.08 4.17 4.17 0 00-.4.19l-.6.33-.5.32c-.15.09-.15.1-.01.2l.06.03.33.2a1.3 1.3 0 00-.14.04c-.23.11-.47.22-.69.34a7.24 7.24 0 00-.65.4c-.22.15-.43.32-.63.48l-.23.22a.06.06 0 01-.05 0 .05.05 0 01-.02-.04c.06-.18.11-.35.18-.52.05-.14.13-.27.2-.41a7.19 7.19 0 01.3-.67c.16-.29.35-.56.54-.83l.33-.38-.04.46c-.01.06.02.11.08.07a2.6 2.6 0 00.24-.17l.4-.3.63-.38.41-.23.41-.19.27-.1.27-.08.46-.12.12-.01a2.04 2.04 0 01.3-.05 2.53 2.53 0 01.56.05 2.48 2.48 0 01.54.16 2.52 2.52 0 01.57.4 2.68 2.68 0 01.61.78c.03.04.07.1.11.11a.98.98 0 01.38.14.97.97 0 01.54.84v.27a.13.13 0 00.07.08 2.44 2.44 0 01.41.13 2.58 2.58 0 01.68.56.82.82 0 00.18.18c.1.06.23.09.34.15a2 2 0 01.66.52 3.24 3.24 0 01.28.43 1.95 1.95 0 01.13.33l.07.27zM.83 31.46a1.92 1.92 0 00.1.49 2.33 2.33 0 00.36.5.95.95 0 00.55.31 5.53 5.53 0 00.8.01h.02a2.35 2.35 0 00.37-.2 1.84 1.84 0 00.4-.4 1.12 1.12 0 00.16-.41.92.92 0 00.01-.52l-.02-.13c-.01-.04-.02-.09-.04-.1a.15.15 0 00-.13.03.65.65 0 01-.55.18c-.2-.01-.43-.3-.38-.47a.69.69 0 01.23-.39c.06-.04.06-.16 0-.17a6.59 6.59 0 00-.45-.07 1.3 1.3 0 00-.39.05 1.15 1.15 0 00-.57.29 1.34 1.34 0 00-.47 1zm24.75 1.4a1.55 1.55 0 00.34-.04 2.88 2.88 0 00.4-.18 1.14 1.14 0 00.51-.58 1.23 1.23 0 00.08-.53 1.2 1.2 0 00-.25-.7 1.1 1.1 0 00-.5-.38 1.16 1.16 0 00-.6-.12 3.24 3.24 0 00-.37.07c-.01 0-.03.07-.02.1a1.51 1.51 0 00.12.16.38.38 0 01-.03.54.37.37 0 01-.5.1 2.83 2.83 0 01-.28-.17c-.06-.04-.09-.03-.1.03a1.4 1.4 0 00-.09.3 1.47 1.47 0 00.03.51 1.23 1.23 0 00.25.44 1.36 1.36 0 00.5.36 2.55 2.55 0 00.5.1zM12.78 5.34c.15-.05.12-.16.11-.27a.28.28 0 01.08-.2 1.49 1.49 0 01.27-.14c.05-.03.13-.06.14-.1a3.24 3.24 0 000-.46c0-.02-.06-.06-.08-.06-.13.01-.17.07-.17.2a.23.23 0 010 .09.41.41 0 01-.1.16c-.05.03-.1.01-.16-.04-.08-.1-.1-.08-.15.02s-.17.13-.22.05c-.06-.1-.13-.1-.23-.08a.15.15 0 01-.13-.04.18.18 0 00-.24-.11c-.09.03-.1.06-.05.13a2.04 2.04 0 01.1.2l.17.35.25.48a.1.1 0 00.08.05c.1 0 .16.01.2.1a.06.06 0 00.04.04.77.77 0 00.48-.08.1.1 0 000-.08.73.73 0 00-.13-.05c.04-.21-.2-.04-.26-.16zm1.72-3.47a.21.21 0 00.08 0 .6.6 0 00.17-.1c.02-.02-.02-.09-.03-.13-.02-.06-.07-.14-.05-.18.05-.1 0-.1-.07-.13l-.1-.08a.53.53 0 00-.11-.05c-.18-.05-.27.12-.41.16l-.02.07a.34.34 0 010 .09c-.1.24-.1.24.06.33a.28.28 0 00.1.02.65.65 0 000 .18 1.28 1.28 0 00.11.25.48.48 0 00.1.1.54.54 0 00.08-.1.97.97 0 01.1-.22c.07-.08.06-.14 0-.21z"/></symbol><symbol id="ulud" viewBox="0 0 24 37"><path d="M11.23 37l-.07-.05-1.3-.16a10.37 10.37 0 01-2.77-.85 11.55 11.55 0 01-2.84-1.8A12.5 12.5 0 012.2 31.9a11.32 11.32 0 01-1.4-2.62 10.78 10.78 0 01-.76-3.6 1.48 1.48 0 00-.05-.26v-.3a.4.4 0 00.05-.13c0-.45 0-.9.03-1.34 2.22 5.32 6.05 8.47 11.93 8.46s9.7-3.14 11.87-8.44l.12.94v.87a.35.35 0 00-.05.1L23.8 27a11.1 11.1 0 01-1.06 3.33 11.58 11.58 0 01-1.6 2.41 12.21 12.21 0 01-1.84 1.78 11.67 11.67 0 01-2.91 1.64 10.9 10.9 0 01-2.94.73c-.23.02-.46.07-.68.1zm.53-6.68a9.22 9.22 0 01-9-9.47 8.94 8.94 0 012.93-6.47 8.91 8.91 0 016.33-2.49 8.97 8.97 0 016.7 2.9 8.94 8.94 0 012.52 6.02 9.32 9.32 0 01-9.26 9.51zm-.35-19.56a2.61 2.61 0 00-1.43-.53 2.97 2.97 0 01-2.52-2.32 1.97 1.97 0 01.42-1.74 3.84 3.84 0 00.28-.39.55.55 0 00.06-.54.86.86 0 01.2-1 4.71 4.71 0 00.52-.81 2.05 2.05 0 00.11-.53 1.2 1.2 0 01.53 1.23c-.1.36-.29.72-.13 1.1a3.18 3.18 0 00.38.63c.18.25.38.45.3.82-.1.44 0 .58.32.72.3.12.61-.05.57-.37a6.74 6.74 0 00-.3-1.02 8.24 8.24 0 01-.25-.8 1.36 1.36 0 01.48-1.18c.18-.2.35-.4.52-.62a.86.86 0 00.09-.92.9.9 0 00-.07-.13c-.55-.85-.12-1.48.57-2.1.1-.1.2-.17.3-.26h.05a1.38 1.38 0 00.27 1.12 1.68 1.68 0 01.17 1.5 1.42 1.42 0 00.44 1.61 2.68 2.68 0 01.53.7.86.86 0 01-.04.77 5.96 5.96 0 00-.34 1.06.64.64 0 00.18.46.38.38 0 00.36.03.42.42 0 00.22-.5.86.86 0 01.4-.96 1 1 0 00.37-1.35 1.76 1.76 0 01-.13-.72c.03-.36.3-.6.56-.88a4.54 4.54 0 00.13.68 2.78 2.78 0 00.34.71 1.05 1.05 0 01.23.9 1.7 1.7 0 00.2 1.1 7.69 7.69 0 01.44 1.13 2.1 2.1 0 01-.43 1.86 2.94 2.94 0 01-2.06 1.08 5.42 5.42 0 00-1.05.2 2.5 2.5 0 00-1.08.9l-.71-.64z"/></symbol></svg>