<svg xmlns="http://www.w3.org/2000/svg"><symbol id="close" viewBox="0 0 612 612"><path d="M612 36L576.52.6 306 270.6 35.48.6 0 36l270.52 270.01L0 576l35.48 35.4L306 341.4l270.52 270L612 576 341.46 306z"/></symbol><symbol id="info" viewBox="0 0 21 21"><path data-name="Path 116" d="M14 17.06a.43.43 0 01-.44.44H7.44a.43.43 0 01-.44-.44v-2.18a.43.43 0 01.44-.44h1.31v-4.38H7.44A.43.43 0 017 9.62V7.45A.43.43 0 017.44 7h4.37a.43.43 0 01.44.44v7h1.31a.43.43 0 01.44.44zM12.25 4.81a.43.43 0 01-.44.44H9.2a.43.43 0 01-.44-.44V2.63a.43.43 0 01.44-.44h2.62a.43.43 0 01.44.44zM21 10.5A10.5 10.5 0 0010.5 0 10.5 10.5 0 000 10.5 10.5 10.5 0 0010.5 21 10.5 10.5 0 0021 10.5z"/></symbol><symbol id="left" viewBox="0 0 40 40"><path d="M9.4 22l17.2 17.2c1.1 1.1 2.9 1.1 4 0s1.1-2.9 0-4L15.4 20 30.6 4.8c1.1-1.1 1.1-2.9 0-4s-2.9-1.1-4 0L9.4 18c-.5.5-.8 1.3-.8 2s.3 1.4.8 2z"/></symbol><symbol id="menu" viewBox="0 0 28 28"><path d="M1.39 23a1.39 1.39 0 110-2.77h25.23a1.39 1.39 0 010 2.77zm0-7.62a1.38 1.38 0 110-2.76h25.23a1.38 1.38 0 110 2.76zm0-7.61a1.39 1.39 0 110-2.77h25.23a1.39 1.39 0 010 2.77z" data-name="кнопка Меню"/></symbol><symbol id="phone" viewBox="0 0 16 16"><path d="M16 12.64a.58.58 0 00-.03-.24c-.08-.24-.64-.5-.87-.6-.65-.37-1.3-.72-1.94-1.1-.3-.18-.66-.52-1.01-.52-.7 0-1.7 2.06-2.32 2.06a2.44 2.44 0 01-.98-.44 11.3 11.3 0 01-4.64-4.66 2.44 2.44 0 01-.45-.97c0-.62 2.06-1.63 2.06-2.32 0-.35-.34-.72-.52-1.01-.38-.64-.73-1.3-1.1-1.95-.1-.22-.36-.78-.6-.86A.58.58 0 003.38 0 5.06 5.06 0 001.8.35 3 3 0 00.6 1.73 4.34 4.34 0 000 3.85a8.75 8.75 0 00.78 2.98 10.62 10.62 0 00.94 1.98 19.18 19.18 0 005.45 5.46 10.62 10.62 0 002 .95 8.75 8.75 0 002.96.78 4.34 4.34 0 002.12-.58 3 3 0 001.38-1.2 5.06 5.06 0 00.36-1.58z"/></symbol><symbol id="print" viewBox="0 0 16 16"><defs><clipPath id="a"><path fill="none" d="M0 0h16v16H0z"/></clipPath></defs><g clip-path="url(#a)"><path data-name="printing-tool" d="M15.46 7.25a1.71 1.71 0 00-1.3-.58h-.62V4a2.57 2.57 0 00-.2-.92 2.46 2.46 0 00-.45-.79L11.43.71a2.23 2.23 0 00-.73-.5A2.08 2.08 0 009.85 0H3.39a.86.86 0 00-.66.3 1 1 0 00-.27.7v5.67h-.61a1.71 1.71 0 00-1.3.59A2 2 0 000 8.66V13a.34.34 0 00.1.23.28.28 0 00.2.1h2.16V15a1 1 0 00.27.7.86.86 0 00.66.3h9.23a.86.86 0 00.65-.3 1 1 0 00.27-.7v-1.67h2.15a.28.28 0 00.22-.1A.34.34 0 0016 13V8.67a2 2 0 00-.54-1.42zm-3.15 7.42H3.69V12h8.62zm0-6.67H3.69V1.33h6.16V3a1 1 0 00.27.7.86.86 0 00.65.3h1.54v4zm2.28 1.13a.57.57 0 01-.87 0 .7.7 0 010-.93.57.57 0 01.87 0 .7.7 0 010 .93z"/></g></symbol><symbol id="right" viewBox="0 0 40 40"><path d="M30.6 22L13.4 39.2c-1.1 1.1-2.9 1.1-4 0s-1.1-2.9 0-4L24.6 20 9.4 4.8c-1.1-1.1-1.1-2.9 0-4s2.9-1.1 4 0L30.6 18c.5.5.8 1.3.8 2s-.3 1.4-.8 2z"/></symbol><symbol id="submenu1" viewBox="0 0 37 23"><path d="M10.96 16.4a3.3 3.3 0 103.25 3.3 3.28 3.28 0 00-3.25-3.3zm0 4.95a1.65 1.65 0 111.63-1.65 1.64 1.64 0 01-1.63 1.65zm-2.8-4.94H.86a.53.53 0 00-.52.52v1.61a.53.53 0 00.52.53h5.85a4.36 4.36 0 011.45-2.66zm19.83 0a3.3 3.3 0 103.26 3.29 3.28 3.28 0 00-3.26-3.3zm0 4.94a1.65 1.65 0 111.63-1.65 1.64 1.64 0 01-1.63 1.65zm8.49-4.94H35.2V9.2a4.28 4.28 0 00-.72-2.36L31.3 2.08A4.17 4.17 0 0027.83.2H22.9a1.05 1.05 0 00-1.05 1.06V16.4h-8.09a4.37 4.37 0 011.45 2.66h8.53a4.29 4.29 0 018.5 0h4.23a.52.52 0 00.53-.53v-1.6a.52.52 0 00-.52-.53zm-5.21-8.6h-6.52a.52.52 0 01-.53-.53V3.6a.53.53 0 01.53-.52h3.97a.52.52 0 01.43.22l2.55 3.66a.53.53 0 01-.43.83zm-11.91 7.54H1.05A1.05 1.05 0 010 14.3V9.53a1.05 1.05 0 011.05-1.06h18.3a1.05 1.05 0 011.05 1.06v4.76a1.05 1.05 0 01-1.04 1.06zM8.37 6.88H1.05A1.05 1.05 0 010 5.82V1.06A1.05 1.05 0 011.05 0h7.32a1.05 1.05 0 011.05 1.06v4.76a1.05 1.05 0 01-1.05 1.06zm10.99 0h-7.33A1.05 1.05 0 0111 5.82V1.06A1.05 1.05 0 0112.03 0h7.33a1.05 1.05 0 011.04 1.05v4.77a1.05 1.05 0 01-1.04 1.05z"/></symbol><symbol id="submenu2" viewBox="0 0 27 23"><path d="M26.46 5.34L14.06.14a1.7 1.7 0 00-1.33 0L.53 5.34a.9.9 0 00-.53.82v1.86a.88.88 0 00.87.9h.65a.22.22 0 01.22.22v11.85A1.99 1.99 0 003.7 23h.57V12.25h18.46V23h.57a1.99 1.99 0 001.96-2.01V9.14a.22.22 0 01.22-.23h.65a.88.88 0 00.87-.89V6.16a.9.9 0 00-.54-.83zM8.7 8.9H4.35v-2h4.36v2zm6.97 0h-4.36v-2h4.36zm6.97 0h-4.36v-2h4.36v2zm-12.8 9.62H8.6v1.76h-.58v-1.76H6.78a.83.83 0 00-.82.84v2.8a.83.83 0 00.82.83h3.06a.83.83 0 00.82-.84v-2.8a.83.83 0 00-.82-.83zm5.19 0H13.8v1.76h-.58v-1.76h-1.25a.83.83 0 00-.82.84v2.8a.83.83 0 00.82.83h3.06a.83.83 0 00.82-.84v-2.8a.83.83 0 00-.82-.83zm5.29 0h-1.25v1.76h-.58v-1.76h-1.24a.83.83 0 00-.82.84v2.8a.83.83 0 00.82.83h3.06a.83.83 0 00.82-.84v-2.8a.83.83 0 00-.82-.83zm-7.88-5.04H11.2v1.75h-.58V13.5H9.38a.83.83 0 00-.81.84v2.8a.83.83 0 00.81.83h3.07a.83.83 0 00.82-.84v-2.8a.83.83 0 00-.82-.83zm5.32 0h-1.24v1.75h-.58V13.5H14.7a.83.83 0 00-.82.84v2.8a.83.83 0 00.82.83h3.06a.83.83 0 00.82-.84v-2.8a.83.83 0 00-.81-.83z"/></symbol><symbol id="submenu3" viewBox="0 0 17 23"><path d="M8.48 4.22c-3.44 0-5.85-1.11-5.85-2.11S5.03 0 8.48 0s5.85 1.11 5.85 2.1-2.4 2.12-5.85 2.12zM17 10.9a21.67 21.67 0 00-2.08-8.07c-.53.94-2.06 1.67-4.13 1.98l-.9 2.63h2.06l-3.7 5.72 1.1-4.1L6.86 9l.86-4.03c-2.8-.13-4.97-.95-5.64-2.1A21.63 21.63 0 000 10.91c0 2.27 1.76 5.82 7.51 6.19a4.82 4.82 0 01-.2 3.29c-2.29.14-4 .66-4 1.29C3.31 22.4 5.63 23 8.5 23s5.19-.6 5.19-1.32c0-.63-1.71-1.15-4-1.3a4.82 4.82 0 01-.2-3.28c5.76-.37 7.52-3.92 7.52-6.2z"/></symbol><symbol id="submenu4" viewBox="0 0 29 23"><path d="M28.32 22.4H25.4a.68.68 0 01-.68-.69v-9.49a.68.68 0 01.68-.68h2.93a.68.68 0 01.68.68v9.5a.68.68 0 01-.68.68zm-5.1-8.86a7.82 7.82 0 00-3.45-.86 8.94 8.94 0 00-4.33 1.58H9.68a2.2 2.2 0 00-2.32 2.3 2.35 2.35 0 002.32 2.28h6.66a1.98 1.98 0 011.13.75H9.63a3.13 3.13 0 01-2.96-2A36.24 36.24 0 012 13.19C.87 12-.71 13.3.35 14.84a73.9 73.9 0 004.9 5.39C7.34 22.4 11.11 23 14.01 23c3.1 0 6.21-1.7 9.15-2.2a.42.42 0 00.3-.42v-6.44a.46.46 0 00-.25-.4zm-16.85 2.5c.4-.1.77-.56.6-.85a16.56 16.56 0 00-4-3.33c-.76-.3-.94.36-.94.36zm.78-1.63c.39-.1.76-.57.6-.85a10.03 10.03 0 00-3.17-2.48c-.76-.31-.93.36-.93.36l3.5 2.97zM19.9 2.1v7.07a2.1 2.1 0 01-2.09 2.12H9.96a2.1 2.1 0 01-2.09-2.12V2.12A2.1 2.1 0 019.97 0h3.19v1.6h1.48V0h3.17a2.1 2.1 0 012.1 2.12zm-4.03 4.04l-2.24-2.7-2.25 2.7h1.32v3.1h1.85v-3.1h1.32z"/></symbol><symbol id="submenu5" viewBox="0 0 19 23"><path d="M7.14 17.95a5.06 5.06 0 012-4.03V3.04a3.05 3.05 0 016.1 0v10.88a5.05 5.05 0 11-8.1 4.03zm2.68-14.9v11.04a.34.34 0 01-.14.28 4.38 4.38 0 105.03 0 .34.34 0 01-.14-.28V3.05a2.37 2.37 0 00-4.75 0zM8.6 17.86a3.61 3.61 0 012.12-3.27V3.05a1.48 1.48 0 012.95 0v11.54a3.6 3.6 0 11-5.07 3.27zm2.8-14.81v1.74H13V3.05a.8.8 0 00-1.6 0zm5.31 10.6a.34.34 0 010-.67h1.2a.34.34 0 110 .68zm0-2.72a.34.34 0 010-.68h.89a.34.34 0 010 .68zM3.41 9.29a.81.81 0 00-1.32-.42.47.47 0 01-.31.12.5.5 0 01-.4-.22.46.46 0 01-.04-.45.79.79 0 00-.06-.76.8.8 0 00-.68-.37.77.77 0 00-.08 0H.48a.48.48 0 01-.24-.88.8.8 0 000-1.39.48.48 0 01.23-.89H.6a.8.8 0 00.68-.36.78.78 0 00.06-.76.47.47 0 01.04-.45.5.5 0 01.4-.22.47.47 0 01.3.12.8.8 0 00.54.2.8.8 0 00.8-.63.46.46 0 01.45-.37.46.46 0 01.47.37.81.81 0 00.79.63.79.79 0 00.53-.2.47.47 0 01.31-.12.5.5 0 01.4.22.46.46 0 01.04.45.81.81 0 00.74 1.12h.13a.48.48 0 01.23.89.8.8 0 000 1.39.48.48 0 01-.24.88h-.12a.8.8 0 00-.74 1.13.45.45 0 01-.03.44.5.5 0 01-.4.23.47.47 0 01-.32-.13.8.8 0 00-.53-.2.81.81 0 00-.8.63.46.46 0 01-.46.38.46.46 0 01-.46-.38zm-1.4-3.67a1.86 1.86 0 101.86-1.86 1.86 1.86 0 00-1.86 1.86zm14.7 2.58a.34.34 0 010-.68h1.95a.34.34 0 110 .68zm0-2.73a.34.34 0 010-.68h.88a.34.34 0 010 .68zm0-2.73a.34.34 0 010-.68h1.2a.34.34 0 110 .68z"/></symbol><symbol id="submenu6" viewBox="0 0 32 23"><path d="M3.2 17.03A2.99 2.99 0 106.17 20a2.98 2.98 0 00-2.97-2.98zm0 4.48A1.5 1.5 0 114.69 20a1.49 1.49 0 01-1.49 1.5zm22.86-7.37L22 16.65a1.43 1.43 0 01-.11-.56v-3.96a1.43 1.43 0 01.1-.51zm-3.55-3.19a1.41 1.41 0 01.81-.25h7.25a1.4 1.4 0 01.7.19l-4.43 2.76zm5.12 3.19l4.22-2.63a1.43 1.43 0 01.15.62v3.95a1.42 1.42 0 01-.17.67zm-6.46 4.1h7.56v1.52H21.5a3.75 3.75 0 00-1.83-2.97h.02l-.02-.03V1.52h1.51v16.72zm10.05-.9a1.4 1.4 0 01-.65.17h-7.24a1.41 1.41 0 01-.77-.22l4.29-2.67zM26.06 6.5l-4.04 2.52a1.43 1.43 0 01-.12-.57V4.49a1.43 1.43 0 01.1-.52zm-3.54-3.18a1.41 1.41 0 01.8-.26h7.25a1.4 1.4 0 01.7.2L26.84 6zm5.11 3.18l4.22-2.63a1.43 1.43 0 01.15.62v3.96a1.42 1.42 0 01-.17.66zm3.6 3.22a1.4 1.4 0 01-.66.16h-7.24a1.41 1.41 0 01-.77-.23L26.85 7zm-19.4-8.47A2.27 2.27 0 009.82 0h-4.9A1.52 1.52 0 003.4 1.52V9.5H1.89A1.9 1.9 0 000 11.4v6.7a3.72 3.72 0 016.92 1.66h7.13a3.74 3.74 0 013.72-3.5 3.69 3.69 0 011.9.53v-.03zm2.87 11.3H6.15a.38.38 0 01-.38-.37V2.73a.38.38 0 01.38-.38h3.72a.38.38 0 01.34.2L15.04 12a.38.38 0 01-.34.56zm3.07 4.48A2.99 2.99 0 1020.74 20a2.98 2.98 0 00-2.97-2.98zm0 4.48a1.5 1.5 0 111.49-1.5 1.49 1.49 0 01-1.49 1.5z"/></symbol><symbol id="submenu7" viewBox="0 0 22 23"><path d="M10.97 12.38v9.07l7.22-1.37v-4.42a.31.31 0 01.34-.31l.89.14a.31.31 0 01.27.3v5.14a.31.31 0 01-.24.3l-7.9 1.7a2.78 2.78 0 01-1.16 0L2.57 21.3a.31.31 0 01-.25-.3l-.13-5.21a.31.31 0 01.28-.32l6.64-.59a.3.3 0 00.26-.19l1-2.43a.3.3 0 01.6.12zM2.1 9.4L.03 13.86a.31.31 0 00.31.44l7.83-.79a.31.31 0 00.25-.18l2.52-5.68-8.6 1.58a.31.31 0 00-.23.17zm8.83-1.75l2.66 5.85a.3.3 0 00.26.18l7.8.63a.31.31 0 00.31-.44l-2.03-4.46a.31.31 0 00-.23-.18zm-2.2-4.63l1.94 3.36a.39.39 0 00.67 0l1.93-3.36a.39.39 0 00-.33-.58h-.97V.4a.39.39 0 00-.37-.4h-1.16a.39.39 0 00-.38.39v2.05h-.97a.39.39 0 00-.34.58z"/></symbol><symbol id="submenu8" viewBox="0 0 24 23"><path d="M23.5 3.89L20.87.5a1.3 1.3 0 00-1.01-.5H6.3a1.3 1.3 0 00-1.02.5L2.65 3.9a2.81 2.81 0 00-.5 1.5v2.48a1.7 1.7 0 01.88-.72 1.9 1.9 0 01.25-.8 1.82 1.82 0 013.12-.1 1.7 1.7 0 01.3-.02 1.67 1.67 0 01.85.23L9 6.07A2.15 2.15 0 019.56 6a2.22 2.22 0 012.13 1.7l2.85 11.24a2.3 2.3 0 01-.23 1.72 2.2 2.2 0 01-1.35 1.05l-1.27.34h10.68A1.66 1.66 0 0024 20.37V5.35a2.79 2.79 0 00-.5-1.46zm-20-.03l.88-1.12h5.92l.59-1H5.14l.64-.82A.64.64 0 016.3.67h13.56a.64.64 0 01.5.25l.65.83h-5.85l.33.99h6.29l.86 1.12zm.27 4.13l-.36.1a.75.75 0 00-.53.91v.02a.73.73 0 00.9.54l3.1-.83a.75.75 0 00.53-.92V7.8a.73.73 0 00-.9-.54l-.36.1a.37.37 0 01-.45-.27v-.01a.85.85 0 00-1.04-.63h-.02a.88.88 0 00-.6 1.07v.01a.38.38 0 01-.27.46zm1-1.05a.37.37 0 01.45.27.38.38 0 01-.26.46.37.37 0 01-.45-.27.38.38 0 01.26-.46zM9.35 18.5a.25.25 0 01-.17.3l-4.52 1.22a.24.24 0 01-.3-.19l-.06-.24a.25.25 0 01.17-.3L9 18.06a.24.24 0 01.3.19zm.56-4.84l.06.24a.25.25 0 01-.18.3L3.6 15.87a.24.24 0 01-.3-.18l-.06-.24a.25.25 0 01.18-.31l6.19-1.65a.24.24 0 01.3.18zM9.23 12l-6.18 1.65a.24.24 0 01-.3-.18l-.06-.24a.25.25 0 01.17-.31l6.19-1.65a.24.24 0 01.3.18l.06.24a.25.25 0 01-.18.3zm-.13 4.47l-5 1.34a.24.24 0 01-.3-.18l-.06-.25a.25.25 0 01.17-.3l5-1.34a.24.24 0 01.3.18l.06.24a.25.25 0 01-.17.31zm4.5 2.71L10.75 7.95a1.23 1.23 0 00-1.5-.9l-1.45.38a1.28 1.28 0 01.08.23 1.26 1.26 0 01-.87 1.55l-3.06.82a1.25 1.25 0 01-1.51-.8 1.33 1.33 0 01-.07-.35l-1.45.4a1.27 1.27 0 00-.88 1.53l2.85 11.24a1.23 1.23 0 001.5.9l8.33-2.22a1.27 1.27 0 00.88-1.54zm-9.52 2.55L1.6 11.96l8.33-2.22 2.47 9.77z"/></symbol><symbol id="toggle-arrow" viewBox="0 0 16 16"><path d="M11.77 6.95L8.2 10.5a.4.4 0 01-.59 0L4.23 7.1a.42.42 0 01.6-.58l3.09 3.1 3.26-3.27a.42.42 0 11.59.59zM16 8a8 8 0 11-8-8 8 8 0 018 8zm-.84 0A7.16 7.16 0 108 15.16 7.15 7.15 0 0015.16 8z"/></symbol><symbol id="top" viewBox="0 0 50 80"><path d="M0 80v-6h50v6zm35-11V15h-4l7-15 7 15h-4v54zM9 69V15H5l7-15 7 15h-4v54z"/></symbol></svg>