<svg width="9" height="5" viewBox="0 0 9 5" fill="none" xmlns="http://www.w3.org/2000/svg">
<path d="M8.01222 0.555024C8.01825 0.415341 7.96926 0.278862 7.87578 0.174902C7.78229 0.0709424 7.65175 0.00779507 7.51222 -0.000976562H0.512217C0.372679 0.00779507 0.242147 0.0709424 0.148658 0.174902C0.0551693 0.278862 0.0061815 0.415341 0.012217 0.555024C0.0116103 0.699155 0.0643242 0.838419 0.160217 0.946023L3.66022 4.83502C3.70398 4.88566 3.75798 4.92646 3.81865 4.95473C3.87932 4.98299 3.94529 4.99809 4.01222 4.99902C4.07922 4.99796 4.14524 4.98271 4.20591 4.95427C4.26659 4.92583 4.32054 4.88485 4.36422 4.83402L7.86422 0.945024C7.95988 0.837676 8.01258 0.69881 8.01222 0.555024Z" fill="#264C80"/>
</svg>
